<?xml version="1.0" encoding="utf-8"?>
<!-- Generator: Adobe Illustrator 16.0.0, SVG Export Plug-In . SVG Version: 6.00 Build 0)  -->
<!DOCTYPE svg PUBLIC "-//W3C//DTD SVG 1.1//EN" "http://www.w3.org/Graphics/SVG/1.1/DTD/svg11.dtd">
<svg version="1.1" id="图层_1" xmlns="http://www.w3.org/2000/svg" xmlns:xlink="http://www.w3.org/1999/xlink" x="0px" y="0px"
	 width="500px" height="500px" viewBox="0 0 500 500" enable-background="new 0 0 500 500" xml:space="preserve">
<g>
	<g>
		<g>
			<g>
				<g>
					<path fill-rule="evenodd" clip-rule="evenodd" fill="none" d="M342.112,256.322c0,0,0.03-0.395,0.075-0.985
						c0.031-0.593,0.039-1.384,0.063-2.175c0.041-1.581,0.081-3.163,0.081-3.163h7.2c0,0-0.043,1.693-0.084,3.386
						c-0.025,0.847-0.036,1.693-0.068,2.327c-0.049,0.634-0.08,1.056-0.08,1.056L342.112,256.322z"/>
				</g>
				<g>
					<g>
						<polygon fill="none" points="342.295,251.378 342.205,254.947 349.397,255.296 349.494,251.475 						"/>
					</g>
					<g>
						<polygon fill-rule="evenodd" clip-rule="evenodd" fill="#FFFFFF" points="349.452,253.163 342.256,252.955 342.295,251.378 
							349.494,251.475 						"/>
					</g>
					<g>
						<polygon fill-rule="evenodd" clip-rule="evenodd" fill="#FFFFFF" points="349.409,254.852 342.216,254.532 342.235,253.743 
							349.431,254.007 						"/>
					</g>
				</g>
			</g>
			<g>
				<g>
					<path fill-rule="evenodd" clip-rule="evenodd" fill="none" d="M341.516,262.618c0,0,0.049-0.392,0.124-0.98
						c0.072-0.588,0.191-1.371,0.233-2.161c0.119-1.577,0.239-3.154,0.239-3.154l7.187,0.445c0,0-0.129,1.689-0.257,3.379
						c-0.048,0.846-0.173,1.685-0.249,2.315c-0.08,0.63-0.133,1.05-0.133,1.05L341.516,262.618z"/>
				</g>
				<g>
					<g>
						<path fill="none" d="M342.008,257.697c0,0-0.067,0.89-0.135,1.78c-0.047,0.892-0.184,1.774-0.184,1.774l7.156,0.796
							c0,0,0.143-0.946,0.196-1.901c0.073-0.953,0.146-1.906,0.146-1.906L342.008,257.697z"/>
					</g>
					<g>
						<polygon fill-rule="evenodd" clip-rule="evenodd" fill="#FFFFFF" points="349.059,259.925 341.889,259.27 342.008,257.697 
							349.188,258.24 						"/>
					</g>
					<g>
						<path fill-rule="evenodd" clip-rule="evenodd" fill="#FFFFFF" d="M348.9,261.606l-7.158-0.767c0,0,0.024-0.195,0.049-0.392
							c0.03-0.194,0.038-0.392,0.038-0.393l7.165,0.711c0,0-0.01,0.211-0.04,0.421C348.928,261.396,348.9,261.606,348.9,261.606z"/>
					</g>
				</g>
			</g>
			<g>
				<g>
					<path fill-rule="evenodd" clip-rule="evenodd" fill="none" d="M340.539,268.865c0,0,0.279-1.557,0.557-3.113
						c0.143-0.777,0.211-1.566,0.295-2.153c0.074-0.588,0.125-0.98,0.125-0.98l7.145,0.894c0,0-0.055,0.421-0.135,1.051
						c-0.09,0.629-0.165,1.474-0.316,2.308c-0.298,1.668-0.596,3.337-0.596,3.337L340.539,268.865z"/>
				</g>
				<g>
					<g>
						<path fill="none" d="M341.342,263.986c0,0-0.028,0.221-0.07,0.553c-0.045,0.331-0.087,0.776-0.176,1.214
							c-0.157,0.878-0.314,1.756-0.314,1.756l7.092,1.244c0,0,0.168-0.941,0.336-1.883c0.094-0.469,0.14-0.945,0.188-1.3
							c0.046-0.355,0.075-0.593,0.075-0.593L341.342,263.986z"/>
					</g>
					<g>
						<path fill-rule="evenodd" clip-rule="evenodd" fill="#FFFFFF" d="M348.248,266.651l-7.115-1.104c0,0,0.065-0.388,0.109-0.78
							c0.05-0.391,0.1-0.781,0.1-0.781l7.131,0.991c0,0-0.053,0.419-0.106,0.838C348.318,266.234,348.248,266.651,348.248,266.651z"
							/>
					</g>
					<g>
						<polygon fill-rule="evenodd" clip-rule="evenodd" fill="#FFFFFF" points="347.951,268.315 340.854,267.101 340.993,266.324 
							348.1,267.483 						"/>
					</g>
				</g>
			</g>
			<g>
				<g>
					<path fill-rule="evenodd" clip-rule="evenodd" fill="none" d="M339.189,275.042c0,0,0.355-1.541,0.71-3.081
						c0.388-1.534,0.64-3.096,0.64-3.096l7.074,1.342c0-0.001-0.273,1.673-0.686,3.317c-0.382,1.651-0.764,3.303-0.764,3.303
						L339.189,275.042z"/>
				</g>
				<g>
					<g>
						<polygon fill="none" points="340.298,270.223 339.498,273.699 346.498,275.389 347.354,271.661 						"/>
					</g>
					<g>
						<polygon fill-rule="evenodd" clip-rule="evenodd" fill="#FFFFFF" points="346.978,273.308 339.946,271.759 340.298,270.223 
							347.354,271.661 						"/>
					</g>
					<g>
						<polygon fill-rule="evenodd" clip-rule="evenodd" fill="#FFFFFF" points="346.598,274.955 339.592,273.295 339.769,272.526 
							346.787,274.132 						"/>
					</g>
				</g>
			</g>
			<g>
				<g>
					<path fill-rule="evenodd" clip-rule="evenodd" fill="none" d="M337.408,281.107c0,0,0.127-0.374,0.317-0.936
						c0.187-0.563,0.384-1.329,0.604-2.088c0.217-0.76,0.433-1.521,0.595-2.091c0.163-0.57,0.265-0.951,0.265-0.951l6.975,1.785
						c0,0-0.108,0.409-0.282,1.021c-0.173,0.611-0.405,1.427-0.636,2.242c-0.237,0.813-0.451,1.634-0.65,2.237
						c-0.203,0.603-0.339,1.004-0.339,1.004L337.408,281.107z"/>
				</g>
				<g>
					<g>
						<polygon fill="none" points="338.818,276.369 337.844,279.801 344.723,281.93 345.768,278.25 						"/>
					</g>
					<g>
						<polygon fill-rule="evenodd" clip-rule="evenodd" fill="#FFFFFF" points="345.307,279.876 338.387,277.885 338.818,276.369 
							345.768,278.25 						"/>
					</g>
					<g>
						<polygon fill-rule="evenodd" clip-rule="evenodd" fill="#FFFFFF" points="344.844,281.502 337.957,279.401 338.172,278.643 
							345.076,280.688 						"/>
					</g>
				</g>
			</g>
			<g>
				<g>
					<path fill-rule="evenodd" clip-rule="evenodd" fill="none" d="M335.26,287.053c0,0,0.146-0.368,0.363-0.919
						c0.205-0.556,0.533-1.277,0.772-2.031c0.507-1.498,1.013-2.995,1.013-2.995l6.849,2.224c0,0-0.544,1.605-1.087,3.21
						c-0.258,0.808-0.605,1.583-0.828,2.179c-0.232,0.591-0.388,0.985-0.388,0.985L335.26,287.053z"/>
				</g>
				<g>
					<g>
						<path fill="none" d="M336.967,282.413c0,0-0.285,0.845-0.571,1.689c-0.134,0.426-0.301,0.84-0.425,1.15
							c-0.123,0.311-0.205,0.519-0.205,0.519l6.73,2.56c0,0,0.087-0.223,0.219-0.557c0.133-0.333,0.311-0.776,0.455-1.232
							c0.307-0.905,0.613-1.812,0.613-1.812L336.967,282.413z"/>
					</g>
					<g>
						<polygon fill-rule="evenodd" clip-rule="evenodd" fill="#FFFFFF" points="343.241,286.331 336.462,283.905 336.967,282.413 
							343.783,284.73 						"/>
					</g>
					<g>
						<polygon fill-rule="evenodd" clip-rule="evenodd" fill="#FFFFFF" points="342.658,287.917 335.918,285.385 336.207,284.652 
							342.968,287.131 						"/>
					</g>
				</g>
			</g>
			<g>
				<g>
					<path fill-rule="evenodd" clip-rule="evenodd" fill="none" d="M332.759,292.858c0,0,0.651-1.44,1.303-2.881
						c0.341-0.714,0.618-1.454,0.837-2.006c0.217-0.552,0.361-0.919,0.361-0.919l6.694,2.652c0,0-0.155,0.394-0.389,0.985
						c-0.233,0.591-0.534,1.384-0.897,2.149c-0.698,1.544-1.396,3.089-1.396,3.089L332.759,292.858z"/>
				</g>
				<g>
					<g>
						<path fill="none" d="M334.755,288.335c0,0-0.309,0.838-0.694,1.643c-0.367,0.813-0.734,1.626-0.734,1.626l6.555,2.979
							c0,0,0.393-0.871,0.787-1.742c0.41-0.864,0.744-1.762,0.744-1.762L334.755,288.335z"/>
					</g>
					<g>
						<path fill-rule="evenodd" clip-rule="evenodd" fill="#FFFFFF" d="M340.76,292.637l-6.613-2.849c0,0,0.16-0.36,0.32-0.72
							c0.145-0.367,0.288-0.733,0.288-0.733l6.657,2.744c0,0-0.156,0.393-0.311,0.786
							C340.931,292.251,340.76,292.637,340.76,292.637z"/>
					</g>
					<g>
						<polygon fill-rule="evenodd" clip-rule="evenodd" fill="#FFFFFF" points="340.064,294.178 333.497,291.225 333.822,290.507 
							340.412,293.407 						"/>
					</g>
				</g>
			</g>
			<g>
				<g>
					<path fill-rule="evenodd" clip-rule="evenodd" fill="none" d="M329.889,298.492c0,0,0.049-0.086,0.135-0.235
						c0.09-0.148,0.21-0.364,0.341-0.631c0.271-0.527,0.63-1.231,0.99-1.936c0.36-0.703,0.722-1.406,0.992-1.935
						c0.247-0.538,0.412-0.897,0.412-0.897l6.513,3.07c0,0-0.177,0.385-0.442,0.962c-0.29,0.565-0.676,1.319-1.062,2.074
						c-0.387,0.754-0.773,1.508-1.063,2.073c-0.142,0.285-0.27,0.517-0.365,0.676c-0.092,0.16-0.145,0.252-0.145,0.252
						L329.889,298.492z"/>
				</g>
				<g>
					<g>
						<polygon fill="none" points="332.168,294.104 330.541,297.279 336.895,300.667 338.639,297.263 						"/>
					</g>
					<g>
						<polygon fill-rule="evenodd" clip-rule="evenodd" fill="#FFFFFF" points="337.869,298.767 331.449,295.506 332.168,294.104 
							338.639,297.263 						"/>
					</g>
					<g>
						<polygon fill-rule="evenodd" clip-rule="evenodd" fill="#FFFFFF" points="337.098,300.271 330.73,296.91 331.09,296.208 
							337.484,299.519 						"/>
					</g>
				</g>
			</g>
			<g>
				<g>
					<path fill-rule="evenodd" clip-rule="evenodd" fill="none" d="M326.65,303.923c0,0,0.214-0.332,0.533-0.831
						c0.33-0.494,0.746-1.166,1.129-1.858c0.787-1.371,1.576-2.741,1.576-2.741l6.307,3.474c0,0-0.845,1.469-1.689,2.938
						c-0.41,0.741-0.857,1.461-1.208,1.991c-0.343,0.534-0.571,0.892-0.571,0.892L326.65,303.923z"/>
				</g>
				<g>
					<g>
						<path fill="none" d="M329.201,299.687c0,0-0.445,0.773-0.89,1.547c-0.224,0.386-0.448,0.771-0.616,1.061
							c-0.18,0.282-0.301,0.47-0.301,0.47l6.129,3.78c0,0,0.128-0.201,0.321-0.504c0.181-0.31,0.421-0.723,0.661-1.136
							c0.477-0.828,0.953-1.657,0.953-1.657L329.201,299.687z"/>
					</g>
					<g>
						<polygon fill-rule="evenodd" clip-rule="evenodd" fill="#FFFFFF" points="334.617,304.711 328.416,301.054 329.201,299.687 
							335.459,303.247 						"/>
					</g>
					<g>
						<path fill-rule="evenodd" clip-rule="evenodd" fill="#FFFFFF" d="M333.763,306.169l-6.144-3.755c0,0,0.111-0.162,0.207-0.335
							c0.098-0.171,0.196-0.342,0.196-0.342l6.173,3.706c0,0-0.105,0.184-0.211,0.366
							C333.883,305.994,333.763,306.169,333.763,306.169z"/>
					</g>
				</g>
			</g>
			<g>
				<g>
					<path fill-rule="evenodd" clip-rule="evenodd" fill="none" d="M323.097,309.153c0,0,0.917-1.288,1.833-2.577
						c0.883-1.312,1.721-2.652,1.721-2.653l6.076,3.864c0,0-0.899,1.437-1.846,2.842c-0.98,1.381-1.963,2.762-1.963,2.762
						L323.097,309.153z"/>
				</g>
				<g>
					<g>
						<path fill="none" d="M325.906,305.084c0,0-0.466,0.762-0.977,1.493c-0.518,0.727-1.035,1.453-1.035,1.453l5.879,4.157
							c0,0,0.555-0.779,1.107-1.559c0.547-0.784,1.049-1.599,1.049-1.599L325.906,305.084z"/>
					</g>
					<g>
						<path fill-rule="evenodd" clip-rule="evenodd" fill="#FFFFFF" d="M331.01,310.447l-5.959-4.04c0,0,0.221-0.326,0.431-0.659
							c0.213-0.332,0.425-0.664,0.425-0.664l6.023,3.946c0,0-0.229,0.355-0.457,0.711
							C331.247,310.098,331.01,310.447,331.01,310.447z"/>
					</g>
					<g>
						<polygon fill-rule="evenodd" clip-rule="evenodd" fill="#FFFFFF" points="330.031,311.825 324.135,307.692 324.593,307.05 
							330.521,311.136 						"/>
					</g>
				</g>
			</g>
			<g>
				<g>
					<path fill-rule="evenodd" clip-rule="evenodd" fill="none" d="M319.232,314.16c0,0,0.253-0.304,0.617-0.772
						c0.366-0.466,0.854-1.088,1.343-1.71c0.483-0.626,0.991-1.233,1.331-1.719c0.344-0.483,0.573-0.806,0.573-0.806l5.821,4.237
						c0,0-0.245,0.345-0.613,0.862c-0.367,0.52-0.908,1.172-1.426,1.842c-0.523,0.666-1.047,1.332-1.439,1.831
						c-0.391,0.502-0.662,0.827-0.662,0.827L319.232,314.16z"/>
				</g>
				<g>
					<g>
						<polygon fill="none" points="322.295,310.275 320.09,313.082 325.697,317.599 328.059,314.592 						"/>
					</g>
					<g>
						<polygon fill-rule="evenodd" clip-rule="evenodd" fill="#FFFFFF" points="327.016,315.92 321.32,311.515 322.295,310.275 
							328.059,314.592 						"/>
					</g>
					<g>
						<polygon fill-rule="evenodd" clip-rule="evenodd" fill="#FFFFFF" points="325.973,317.249 320.346,312.755 320.834,312.135 
							326.494,316.584 						"/>
					</g>
				</g>
			</g>
			<g>
				<g>
					<path fill-rule="evenodd" clip-rule="evenodd" fill="none" d="M315.031,318.888c0,0,1.119-1.119,2.129-2.337
						c1.037-1.195,2.072-2.391,2.072-2.391l5.545,4.593c0,0-1.108,1.28-2.217,2.562c-1.086,1.302-2.281,2.504-2.281,2.503
						L315.031,318.888z"/>
				</g>
				<g>
					<g>
						<path fill="none" d="M318.329,315.202c0,0-0.585,0.675-1.169,1.349c-0.291,0.338-0.584,0.675-0.803,0.928
							c-0.215,0.257-0.375,0.413-0.375,0.413l5.314,4.857c0,0,0.172-0.167,0.402-0.441c0.234-0.271,0.547-0.632,0.86-0.993
							c0.626-0.723,1.252-1.444,1.252-1.444L318.329,315.202z"/>
					</g>
					<g>
						<polygon fill-rule="evenodd" clip-rule="evenodd" fill="#FFFFFF" points="322.705,321.146 317.297,316.394 318.329,315.202 
							323.812,319.87 						"/>
					</g>
					<g>
						<polygon fill-rule="evenodd" clip-rule="evenodd" fill="#FFFFFF" points="321.599,322.423 316.265,317.587 316.78,316.99 
							322.152,321.784 						"/>
					</g>
				</g>
			</g>
			<g>
				<g>
					<path fill-rule="evenodd" clip-rule="evenodd" fill="none" d="M310.559,323.36c0,0,1.146-1.091,2.29-2.183
						c1.091-1.145,2.183-2.29,2.183-2.29l5.248,4.93c0,0-1.17,1.227-2.339,2.452c-1.226,1.169-2.452,2.339-2.452,2.339
						L310.559,323.36z"/>
				</g>
				<g>
					<g>
						<path fill="none" d="M314.08,319.886c0,0-0.616,0.646-1.231,1.293c-0.646,0.615-1.292,1.23-1.292,1.23l5,5.181
							c0,0,0.691-0.66,1.383-1.32c0.66-0.691,1.32-1.383,1.32-1.383L314.08,319.886z"/>
					</g>
					<g>
						<polygon fill-rule="evenodd" clip-rule="evenodd" fill="#FFFFFF" points="318.094,326.108 312.992,321.027 314.08,319.886 
							319.26,324.887 						"/>
					</g>
					<g>
						<polygon fill-rule="evenodd" clip-rule="evenodd" fill="#FFFFFF" points="316.879,327.282 311.857,322.123 312.428,321.579 
							317.49,326.699 						"/>
					</g>
				</g>
			</g>
			<g>
				<g>
					<path fill-rule="evenodd" clip-rule="evenodd" fill="none" d="M305.831,327.562c0,0,1.195-1.035,2.391-2.071
						c1.218-1.011,2.337-2.13,2.337-2.13l4.93,5.248c0,0-1.201,1.196-2.503,2.281c-1.28,1.108-2.562,2.218-2.562,2.218
						L305.831,327.562z"/>
				</g>
				<g>
					<g>
						<path fill="none" d="M309.562,324.313c0,0-0.155,0.16-0.413,0.375c-0.252,0.22-0.59,0.511-0.928,0.803
							c-0.674,0.585-1.348,1.169-1.348,1.169l4.667,5.482c0,0,0.723-0.626,1.444-1.252c0.361-0.313,0.723-0.626,0.994-0.861
							c0.273-0.23,0.441-0.401,0.441-0.401L309.562,324.313z"/>
					</g>
					<g>
						<path fill-rule="evenodd" clip-rule="evenodd" fill="#FFFFFF" d="M313.153,330.744l-4.774-5.39c0,0,0.298-0.258,0.596-0.516
							c0.303-0.253,0.586-0.526,0.587-0.526l4.858,5.314c0,0-0.305,0.292-0.629,0.563
							C313.473,330.467,313.153,330.744,313.153,330.744z"/>
					</g>
					<g>
						<polygon fill-rule="evenodd" clip-rule="evenodd" fill="#FFFFFF" points="311.877,331.851 307.186,326.388 307.782,325.871 
							312.515,331.297 						"/>
					</g>
				</g>
			</g>
			<g>
				<g>
					<path fill-rule="evenodd" clip-rule="evenodd" fill="none" d="M300.824,331.427c0,0,0.322-0.229,0.807-0.573
						c0.484-0.341,1.092-0.849,1.719-1.331c0.621-0.488,1.243-0.978,1.709-1.344c0.469-0.363,0.772-0.617,0.772-0.617l4.593,5.546
						c0,0-0.325,0.271-0.826,0.661c-0.5,0.393-1.166,0.916-1.832,1.439c-0.67,0.518-1.322,1.06-1.842,1.426
						c-0.518,0.368-0.862,0.614-0.862,0.614L300.824,331.427z"/>
				</g>
				<g>
					<g>
						<polygon fill="none" points="304.752,328.42 301.946,330.626 306.262,336.389 309.269,334.027 						"/>
					</g>
					<g>
						<polygon fill-rule="evenodd" clip-rule="evenodd" fill="#FFFFFF" points="307.941,335.071 303.512,329.394 304.752,328.42 
							309.269,334.027 						"/>
					</g>
					<g>
						<polygon fill-rule="evenodd" clip-rule="evenodd" fill="#FFFFFF" points="306.611,336.114 302.272,330.369 302.893,329.882 
							307.276,335.593 						"/>
					</g>
				</g>
			</g>
			<g>
				<g>
					<path fill-rule="evenodd" clip-rule="evenodd" fill="none" d="M295.595,334.98c0,0,1.341-0.839,2.653-1.721
						c1.288-0.917,2.576-1.833,2.576-1.833l4.237,5.821c0,0-1.381,0.981-2.762,1.963c-1.405,0.946-2.841,1.846-2.842,1.846
						L295.595,334.98z"/>
				</g>
				<g>
					<g>
						<path fill="none" d="M299.701,332.226c0,0-0.727,0.517-1.454,1.034c-0.731,0.511-1.492,0.978-1.493,0.978l3.947,6.022
							c0,0,0.814-0.501,1.598-1.048c0.779-0.554,1.559-1.107,1.559-1.107L299.701,332.226z"/>
					</g>
					<g>
						<polygon fill-rule="evenodd" clip-rule="evenodd" fill="#FFFFFF" points="302.481,339.082 298.416,333.14 299.701,332.226 
							303.857,338.104 						"/>
					</g>
					<g>
						<polygon fill-rule="evenodd" clip-rule="evenodd" fill="#FFFFFF" points="301.075,340.02 297.104,334.014 297.768,333.588 
							301.786,339.563 						"/>
					</g>
				</g>
			</g>
			<g>
				<g>
					<path fill-rule="evenodd" clip-rule="evenodd" fill="none" d="M290.163,338.219c0,0,1.371-0.788,2.741-1.577
						c0.693-0.382,1.364-0.799,1.858-1.127c0.499-0.32,0.832-0.534,0.832-0.534l3.863,6.076c0,0-0.356,0.229-0.892,0.571
						c-0.529,0.351-1.25,0.797-1.99,1.208c-1.47,0.845-2.938,1.689-2.938,1.689L290.163,338.219z"/>
				</g>
				<g>
					<g>
						<path fill="none" d="M294.434,335.726c0,0-0.188,0.12-0.469,0.301c-0.283,0.177-0.676,0.392-1.061,0.616
							c-0.773,0.444-1.547,0.889-1.547,0.889l3.561,6.259c0,0,0.828-0.477,1.657-0.954c0.413-0.24,0.826-0.48,1.136-0.661
							c0.303-0.192,0.504-0.321,0.504-0.321L294.434,335.726z"/>
					</g>
					<g>
						<path fill-rule="evenodd" clip-rule="evenodd" fill="#FFFFFF" d="M296.769,342.726l-3.685-6.187c0,0,0.342-0.196,0.684-0.393
							c0.334-0.211,0.666-0.421,0.666-0.421l3.781,6.128c0,0-0.357,0.225-0.715,0.45
							C297.135,342.515,296.769,342.726,296.769,342.726z"/>
					</g>
					<g>
						<polygon fill-rule="evenodd" clip-rule="evenodd" fill="#FFFFFF" points="295.303,343.568 291.717,337.324 292.4,336.932 
							296.036,343.146 						"/>
					</g>
				</g>
			</g>
			<g>
				<g>
					<path fill-rule="evenodd" clip-rule="evenodd" fill="none" d="M284.53,341.089c0,0,0.358-0.165,0.897-0.412
						c0.527-0.271,1.23-0.631,1.935-0.992c0.704-0.359,1.407-0.72,1.935-0.99c0.267-0.131,0.482-0.251,0.631-0.34
						c0.15-0.087,0.235-0.136,0.235-0.136l3.475,6.307c0,0-0.092,0.053-0.253,0.145c-0.158,0.096-0.391,0.224-0.675,0.365
						c-0.565,0.29-1.319,0.676-2.073,1.063c-0.755,0.386-1.509,0.771-2.074,1.062c-0.578,0.266-0.963,0.443-0.963,0.443
						L284.53,341.089z"/>
				</g>
				<g>
					<g>
						<polygon fill="none" points="288.95,338.872 285.774,340.499 288.934,346.969 292.338,345.226 						"/>
					</g>
					<g>
						<polygon fill-rule="evenodd" clip-rule="evenodd" fill="#FFFFFF" points="290.834,345.996 287.547,339.591 288.95,338.872 
							292.338,345.226 						"/>
					</g>
					<g>
						<polygon fill-rule="evenodd" clip-rule="evenodd" fill="#FFFFFF" points="289.33,346.767 286.144,340.31 286.846,339.95 
							290.082,346.382 						"/>
					</g>
				</g>
			</g>
			<g>
				<g>
					<path fill-rule="evenodd" clip-rule="evenodd" fill="none" d="M278.725,343.591c0,0,0.367-0.145,0.919-0.362
						s1.292-0.495,2.005-0.837c1.441-0.651,2.882-1.303,2.882-1.303l3.069,6.514c0,0-1.543,0.697-3.088,1.396
						c-0.766,0.364-1.559,0.664-2.15,0.897c-0.591,0.233-0.984,0.389-0.984,0.389L278.725,343.591z"/>
				</g>
				<g>
					<g>
						<path fill="none" d="M283.273,341.656c0,0-0.813,0.368-1.625,0.735c-0.805,0.386-1.643,0.694-1.643,0.694l2.744,6.656
							c0,0,0.896-0.333,1.762-0.743c0.871-0.395,1.742-0.788,1.742-0.788L283.273,341.656z"/>
					</g>
					<g>
						<polygon fill-rule="evenodd" clip-rule="evenodd" fill="#FFFFFF" points="284.715,348.907 281.838,342.307 283.273,341.656 
							286.254,348.211 						"/>
					</g>
					<g>
						<path fill-rule="evenodd" clip-rule="evenodd" fill="#FFFFFF" d="M283.164,349.579l-2.772-6.646c0,0,0.184-0.072,0.367-0.144
							c0.183-0.072,0.36-0.158,0.36-0.158l2.825,6.623c0,0-0.19,0.091-0.388,0.169C283.36,349.501,283.164,349.579,283.164,349.579z
							"/>
					</g>
				</g>
			</g>
			<g>
				<g>
					<path fill-rule="evenodd" clip-rule="evenodd" fill="none" d="M272.779,345.739c0,0,1.497-0.507,2.994-1.013
						c0.754-0.239,1.477-0.567,2.031-0.773c0.552-0.218,0.92-0.362,0.92-0.362l2.652,6.693c0,0-0.395,0.155-0.986,0.389
						c-0.595,0.222-1.369,0.569-2.178,0.828c-1.605,0.543-3.21,1.087-3.21,1.087L272.779,345.739z"/>
				</g>
				<g>
					<g>
						<path fill="none" d="M277.441,344.097c0,0-0.207,0.082-0.518,0.205c-0.311,0.124-0.725,0.29-1.15,0.425
							c-0.845,0.285-1.689,0.571-1.689,0.571l2.317,6.816c0,0,0.905-0.307,1.812-0.613c0.456-0.146,0.9-0.323,1.232-0.456
							c0.334-0.131,0.557-0.219,0.557-0.219L277.441,344.097z"/>
					</g>
					<g>
						<path fill-rule="evenodd" clip-rule="evenodd" fill="#FFFFFF" d="M278.424,351.43l-2.453-6.77c0,0,0.375-0.122,0.738-0.274
							c0.367-0.145,0.732-0.289,0.732-0.289l2.561,6.729c0,0-0.393,0.155-0.786,0.31
							C278.826,351.298,278.424,351.429,278.424,351.43z"/>
					</g>
					<g>
						<polygon fill-rule="evenodd" clip-rule="evenodd" fill="#FFFFFF" points="276.823,351.972 274.477,345.165 275.224,344.912 
							277.623,351.7 						"/>
					</g>
				</g>
			</g>
			<g>
				<g>
					<path fill-rule="evenodd" clip-rule="evenodd" fill="none" d="M266.713,347.521c0,0,0.383-0.103,0.952-0.265
						c0.57-0.162,1.331-0.378,2.091-0.595c0.759-0.221,1.525-0.419,2.088-0.604c0.561-0.19,0.936-0.317,0.936-0.317l2.224,6.849
						c0,0-0.401,0.135-1.004,0.339c-0.604,0.198-1.424,0.413-2.237,0.649c-0.815,0.231-1.631,0.463-2.242,0.637
						s-1.021,0.282-1.021,0.282L266.713,347.521z"/>
				</g>
				<g>
					<g>
						<polygon fill="none" points="271.472,346.175 268.039,347.149 269.922,354.099 273.601,353.054 						"/>
					</g>
					<g>
						<polygon fill-rule="evenodd" clip-rule="evenodd" fill="#FFFFFF" points="271.976,353.516 269.955,346.604 271.472,346.175 
							273.601,353.054 						"/>
					</g>
					<g>
						<polygon fill-rule="evenodd" clip-rule="evenodd" fill="#FFFFFF" points="270.35,353.978 268.438,347.035 269.197,346.82 
							271.162,353.747 						"/>
					</g>
				</g>
			</g>
			<g>
				<g>
					<path fill-rule="evenodd" clip-rule="evenodd" fill="none" d="M260.537,348.871c0-0.001,1.562-0.253,3.096-0.641
						c1.54-0.355,3.08-0.71,3.08-0.71l1.786,6.975c0,0-1.651,0.382-3.302,0.764c-1.646,0.412-3.318,0.686-3.318,0.686
						L260.537,348.871z"/>
				</g>
				<g>
					<g>
						<polygon fill="none" points="265.37,347.829 261.893,348.629 263.332,355.685 267.06,354.829 						"/>
					</g>
					<g>
						<polygon fill-rule="evenodd" clip-rule="evenodd" fill="#FFFFFF" points="265.414,355.209 263.834,348.184 265.37,347.829 
							267.06,354.829 						"/>
					</g>
					<g>
						<polygon fill-rule="evenodd" clip-rule="evenodd" fill="#FFFFFF" points="263.766,355.588 262.299,348.539 263.066,348.361 
							264.59,355.398 						"/>
					</g>
				</g>
			</g>
			<g>
				<g>
					<path fill-rule="evenodd" clip-rule="evenodd" fill="none" d="M254.29,349.847c0,0,0.392-0.05,0.98-0.125
						c0.587-0.084,1.376-0.151,2.153-0.295c1.557-0.278,3.113-0.556,3.113-0.556l1.342,7.073c0,0-1.668,0.298-3.337,0.596
						c-0.833,0.151-1.679,0.227-2.308,0.317c-0.631,0.08-1.051,0.134-1.051,0.134L254.29,349.847z"/>
				</g>
				<g>
					<g>
						<path fill="none" d="M259.18,349.112c0,0-0.878,0.157-1.756,0.314c-0.438,0.09-0.883,0.131-1.214,0.176
							c-0.331,0.042-0.554,0.07-0.554,0.07l0.992,7.132c0,0,0.237-0.03,0.593-0.076c0.354-0.049,0.831-0.095,1.3-0.188
							c0.941-0.168,1.883-0.335,1.883-0.335L259.18,349.112z"/>
					</g>
					<g>
						<polygon fill-rule="evenodd" clip-rule="evenodd" fill="#FFFFFF" points="258.762,356.501 257.629,349.391 259.18,349.112 
							260.424,356.205 						"/>
					</g>
					<g>
						<polygon fill-rule="evenodd" clip-rule="evenodd" fill="#FFFFFF" points="257.09,356.748 256.068,349.621 256.852,349.521 
							257.928,356.641 						"/>
					</g>
				</g>
			</g>
			<g>
				<g>
					<path fill-rule="evenodd" clip-rule="evenodd" fill="none" d="M247.994,350.444c0,0,1.577-0.12,3.154-0.24
						c0.791-0.042,1.572-0.161,2.161-0.233c0.589-0.074,0.98-0.124,0.98-0.124l0.894,7.145c0,0-0.42,0.053-1.051,0.133
						c-0.63,0.077-1.469,0.202-2.314,0.249c-1.689,0.129-3.378,0.257-3.378,0.257L247.994,350.444z"/>
				</g>
				<g>
					<g>
						<path fill="none" d="M252.922,350.021c0,0-0.882,0.137-1.773,0.184c-0.89,0.067-1.78,0.135-1.78,0.135l0.543,7.18
							c0,0,0.953-0.072,1.906-0.146c0.955-0.053,1.901-0.196,1.901-0.196L252.922,350.021z"/>
					</g>
					<g>
						<path fill-rule="evenodd" clip-rule="evenodd" fill="#FFFFFF" d="M252.039,357.356l-0.684-7.168c0,0,0.395-0.021,0.785-0.068
							c0.391-0.05,0.781-0.1,0.781-0.1l0.797,7.156c0,0-0.419,0.053-0.838,0.105C252.461,357.333,252.039,357.356,252.039,357.356z"
							/>
					</g>
					<g>
						<polygon fill-rule="evenodd" clip-rule="evenodd" fill="#FFFFFF" points="250.355,357.485 249.782,350.308 250.569,350.248 
							251.197,357.421 						"/>
					</g>
				</g>
			</g>
			<g>
				<g>
					<path fill-rule="evenodd" clip-rule="evenodd" fill="none" d="M241.671,350.662c0,0,1.582-0.04,3.163-0.081
						c0.791-0.023,1.583-0.03,2.175-0.062c0.591-0.045,0.985-0.075,0.985-0.075l0.446,7.186c0,0-0.422,0.032-1.056,0.08
						c-0.634,0.033-1.481,0.043-2.328,0.068c-1.693,0.042-3.386,0.084-3.386,0.084V350.662z"/>
				</g>
				<g>
					<g>
						<polygon fill="none" points="246.619,350.537 243.049,350.627 243.146,357.826 246.967,357.729 						"/>
					</g>
					<g>
						<polygon fill-rule="evenodd" clip-rule="evenodd" fill="#FFFFFF" points="245.279,357.772 245.042,350.576 246.619,350.537 
							246.967,357.729 						"/>
					</g>
					<g>
						<polygon fill-rule="evenodd" clip-rule="evenodd" fill="#FFFFFF" points="243.59,357.815 243.464,350.616 244.253,350.596 
							244.435,357.794 						"/>
					</g>
				</g>
			</g>
			<g>
				<g>
					<path fill-rule="evenodd" clip-rule="evenodd" fill="none" d="M235.348,350.444c0,0,0.394,0.03,0.986,0.075
						c0.592,0.03,1.383,0.039,2.174,0.062c1.582,0.041,3.163,0.081,3.163,0.081v7.2c0,0-1.693-0.042-3.386-0.084
						c-0.846-0.025-1.693-0.035-2.327-0.068c-0.634-0.048-1.056-0.079-1.056-0.079L235.348,350.444z"/>
				</g>
				<g>
					<g>
						<polygon fill="none" points="240.292,350.627 236.722,350.537 236.375,357.729 240.195,357.826 						"/>
					</g>
					<g>
						<polygon fill-rule="evenodd" clip-rule="evenodd" fill="#FFFFFF" points="238.507,357.784 238.715,350.587 240.292,350.627 
							240.195,357.826 						"/>
					</g>
					<g>
						<polygon fill-rule="evenodd" clip-rule="evenodd" fill="#FFFFFF" points="236.819,357.74 237.138,350.548 237.926,350.567 
							237.663,357.763 						"/>
					</g>
				</g>
			</g>
			<g>
				<g>
					<path fill-rule="evenodd" clip-rule="evenodd" fill="none" d="M229.052,349.847c0,0,0.392,0.05,0.98,0.125
						c0.588,0.072,1.371,0.19,2.161,0.232c1.577,0.12,3.154,0.24,3.154,0.24l-0.445,7.187c0,0-1.689-0.129-3.378-0.258
						c-0.846-0.047-1.685-0.172-2.315-0.249c-0.63-0.08-1.05-0.133-1.05-0.133L229.052,349.847z"/>
				</g>
				<g>
					<g>
						<path fill="none" d="M233.973,350.339c0,0-0.89-0.067-1.78-0.135c-0.892-0.047-1.774-0.184-1.774-0.184l-0.796,7.156
							c0,0,0.946,0.144,1.901,0.196c0.953,0.073,1.906,0.146,1.906,0.146L233.973,350.339z"/>
					</g>
					<g>
						<polygon fill-rule="evenodd" clip-rule="evenodd" fill="#FFFFFF" points="231.746,357.391 232.4,350.22 233.973,350.339 
							233.43,357.519 						"/>
					</g>
					<g>
						<path fill-rule="evenodd" clip-rule="evenodd" fill="#FFFFFF" d="M230.064,357.232l0.766-7.159c0,0,0.196,0.025,0.391,0.05
							c0.195,0.03,0.393,0.038,0.393,0.038l-0.71,7.165c0,0-0.211-0.01-0.42-0.041C230.273,357.259,230.064,357.232,230.064,357.232
							z"/>
					</g>
				</g>
			</g>
			<g>
				<g>
					<path fill-rule="evenodd" clip-rule="evenodd" fill="none" d="M222.805,348.871c0,0,1.557,0.278,3.113,0.557
						c0.778,0.143,1.567,0.21,2.154,0.294c0.588,0.075,0.98,0.125,0.98,0.125l-0.894,7.145c0,0-0.42-0.054-1.051-0.134
						c-0.629-0.09-1.474-0.165-2.308-0.316c-1.668-0.298-3.336-0.596-3.336-0.596L222.805,348.871z"/>
				</g>
				<g>
					<g>
						<path fill="none" d="M227.684,349.673c0,0-0.221-0.027-0.553-0.069c-0.332-0.046-0.776-0.087-1.214-0.176
							c-0.878-0.157-1.756-0.314-1.756-0.314l-1.244,7.092c0,0,0.941,0.168,1.882,0.335c0.469,0.095,0.946,0.141,1.301,0.189
							c0.355,0.045,0.592,0.075,0.592,0.075L227.684,349.673z"/>
					</g>
					<g>
						<path fill-rule="evenodd" clip-rule="evenodd" fill="#FFFFFF" d="M225.019,356.579l1.103-7.115c0,0,0.388,0.066,0.78,0.11
							c0.391,0.05,0.782,0.099,0.782,0.099l-0.992,7.132c0,0-0.418-0.054-0.837-0.106
							C225.435,356.649,225.019,356.579,225.019,356.579z"/>
					</g>
					<g>
						<polygon fill-rule="evenodd" clip-rule="evenodd" fill="#FFFFFF" points="223.355,356.283 224.569,349.187 225.346,349.325 
							224.187,356.432 						"/>
					</g>
				</g>
			</g>
			<g>
				<g>
					<path fill-rule="evenodd" clip-rule="evenodd" fill="none" d="M216.628,347.521c0,0,1.541,0.355,3.081,0.711
						c1.534,0.387,3.095,0.64,3.095,0.64l-1.341,7.074c0,0-1.673-0.273-3.318-0.686c-1.651-0.382-3.303-0.764-3.303-0.764
						L216.628,347.521z"/>
				</g>
				<g>
					<g>
						<polygon fill="none" points="221.448,348.63 217.971,347.83 216.281,354.829 220.009,355.685 						"/>
					</g>
					<g>
						<polygon fill-rule="evenodd" clip-rule="evenodd" fill="#FFFFFF" points="218.362,355.31 219.912,348.278 221.448,348.63 
							220.009,355.685 						"/>
					</g>
					<g>
						<polygon fill-rule="evenodd" clip-rule="evenodd" fill="#FFFFFF" points="216.715,354.93 218.375,347.923 219.144,348.101 
							217.539,355.119 						"/>
					</g>
				</g>
			</g>
			<g>
				<g>
					<path fill-rule="evenodd" clip-rule="evenodd" fill="none" d="M210.563,345.74c0,0,0.375,0.127,0.936,0.317
						c0.563,0.186,1.329,0.384,2.087,0.604c0.76,0.216,1.521,0.433,2.091,0.595c0.57,0.162,0.952,0.264,0.952,0.264l-1.786,6.976
						c0,0-0.409-0.108-1.021-0.282s-1.427-0.405-2.242-0.637c-0.813-0.236-1.634-0.451-2.237-0.649
						c-0.602-0.204-1.003-0.339-1.003-0.339L210.563,345.74z"/>
				</g>
				<g>
					<g>
						<polygon fill="none" points="215.301,347.149 211.869,346.176 209.74,353.054 213.419,354.1 						"/>
					</g>
					<g>
						<polygon fill-rule="evenodd" clip-rule="evenodd" fill="#FFFFFF" points="211.794,353.639 213.786,346.719 215.301,347.149 
							213.419,354.1 						"/>
					</g>
					<g>
						<polygon fill-rule="evenodd" clip-rule="evenodd" fill="#FFFFFF" points="210.168,353.176 212.269,346.289 213.027,346.504 
							210.981,353.407 						"/>
					</g>
				</g>
			</g>
			<g>
				<g>
					<path fill-rule="evenodd" clip-rule="evenodd" fill="none" d="M204.618,343.592c0,0,0.368,0.145,0.919,0.362
						c0.556,0.206,1.277,0.534,2.031,0.773c1.498,0.506,2.995,1.013,2.995,1.013l-2.223,6.849c0,0-1.605-0.544-3.211-1.087
						c-0.807-0.259-1.582-0.606-2.178-0.828c-0.591-0.232-0.985-0.388-0.985-0.388L204.618,343.592z"/>
				</g>
				<g>
					<g>
						<path fill="none" d="M209.257,345.298c0,0-0.845-0.285-1.69-0.57c-0.426-0.135-0.839-0.301-1.15-0.426
							c-0.311-0.123-0.519-0.204-0.519-0.204l-2.56,6.729c0,0,0.223,0.088,0.556,0.219c0.333,0.133,0.777,0.311,1.233,0.456
							c0.906,0.307,1.812,0.613,1.812,0.613L209.257,345.298z"/>
					</g>
					<g>
						<polygon fill-rule="evenodd" clip-rule="evenodd" fill="#FFFFFF" points="205.339,351.573 207.764,344.794 209.257,345.298 
							206.939,352.115 						"/>
					</g>
					<g>
						<polygon fill-rule="evenodd" clip-rule="evenodd" fill="#FFFFFF" points="203.753,350.99 206.285,344.25 207.018,344.539 
							204.54,351.3 						"/>
					</g>
				</g>
			</g>
			<g>
				<g>
					<path fill-rule="evenodd" clip-rule="evenodd" fill="none" d="M198.812,341.091c0,0,1.44,0.651,2.881,1.302
						c0.713,0.342,1.454,0.619,2.005,0.837c0.552,0.218,0.919,0.362,0.919,0.362l-2.652,6.694c0,0-0.394-0.156-0.985-0.39
						c-0.591-0.233-1.384-0.533-2.15-0.896c-1.544-0.698-3.088-1.396-3.088-1.396L198.812,341.091z"/>
				</g>
				<g>
					<g>
						<path fill="none" d="M203.335,343.087c0,0-0.837-0.309-1.643-0.694c-0.813-0.367-1.625-0.735-1.625-0.735l-2.98,6.555
							c0,0,0.872,0.394,1.743,0.787c0.864,0.411,1.761,0.744,1.761,0.744L203.335,343.087z"/>
					</g>
					<g>
						<path fill-rule="evenodd" clip-rule="evenodd" fill="#FFFFFF" d="M199.033,349.091l2.849-6.612c0,0,0.36,0.16,0.72,0.319
							c0.367,0.145,0.733,0.289,0.733,0.289l-2.744,6.656c0,0-0.393-0.155-0.786-0.311
							C199.419,349.262,199.033,349.091,199.033,349.091z"/>
					</g>
					<g>
						<polygon fill-rule="evenodd" clip-rule="evenodd" fill="#FFFFFF" points="197.492,348.396 200.445,341.828 201.164,342.153 
							198.263,348.743 						"/>
					</g>
				</g>
			</g>
			<g>
				<g>
					<path fill-rule="evenodd" clip-rule="evenodd" fill="none" d="M193.178,338.22c0,0,0.085,0.05,0.235,0.136
						c0.148,0.09,0.364,0.209,0.63,0.341c0.528,0.27,1.231,0.63,1.936,0.99c0.703,0.36,1.407,0.721,1.935,0.991
						c0.539,0.248,0.897,0.413,0.897,0.413l-3.07,6.513c0,0-0.385-0.178-0.962-0.443c-0.566-0.289-1.32-0.675-2.074-1.062
						c-0.754-0.386-1.508-0.772-2.074-1.063c-0.285-0.141-0.516-0.27-0.675-0.364c-0.161-0.093-0.252-0.146-0.252-0.146
						L193.178,338.22z"/>
				</g>
				<g>
					<g>
						<polygon fill="none" points="197.566,340.5 194.391,338.873 191.003,345.227 194.407,346.97 						"/>
					</g>
					<g>
						<polygon fill-rule="evenodd" clip-rule="evenodd" fill="#FFFFFF" points="192.903,346.2 196.164,339.781 197.566,340.5 
							194.407,346.97 						"/>
					</g>
					<g>
						<polygon fill-rule="evenodd" clip-rule="evenodd" fill="#FFFFFF" points="191.399,345.43 194.76,339.063 195.462,339.421 
							192.151,345.815 						"/>
					</g>
				</g>
			</g>
			<g>
				<g>
					<path fill-rule="evenodd" clip-rule="evenodd" fill="none" d="M187.747,334.982c0,0,0.333,0.213,0.832,0.533
						c0.494,0.329,1.166,0.746,1.858,1.128c1.371,0.788,2.741,1.576,2.741,1.576l-3.474,6.307c0,0-1.469-0.845-2.938-1.688
						c-0.742-0.411-1.461-0.857-1.991-1.209c-0.535-0.343-0.892-0.571-0.892-0.571L187.747,334.982z"/>
				</g>
				<g>
					<g>
						<path fill="none" d="M191.983,337.532c0,0-0.773-0.444-1.547-0.889c-0.386-0.225-0.771-0.448-1.061-0.616
							c-0.282-0.181-0.469-0.301-0.469-0.301l-3.78,6.128c0,0,0.201,0.129,0.503,0.322c0.31,0.18,0.723,0.42,1.136,0.66
							c0.829,0.478,1.657,0.954,1.657,0.954L191.983,337.532z"/>
					</g>
					<g>
						<polygon fill-rule="evenodd" clip-rule="evenodd" fill="#FFFFFF" points="186.959,342.948 190.617,336.747 191.983,337.532 
							188.423,343.791 						"/>
					</g>
					<g>
						<path fill-rule="evenodd" clip-rule="evenodd" fill="#FFFFFF" d="M185.501,342.094l3.755-6.144c0,0,0.163,0.112,0.335,0.208
							c0.171,0.098,0.342,0.196,0.342,0.196l-3.707,6.173c0,0-0.183-0.105-0.366-0.211
							C185.675,342.214,185.501,342.094,185.501,342.094z"/>
					</g>
				</g>
			</g>
			<g>
				<g>
					<path fill-rule="evenodd" clip-rule="evenodd" fill="none" d="M182.517,331.428c0,0,1.289,0.917,2.577,1.834
						c1.312,0.882,2.653,1.721,2.653,1.721l-3.864,6.075c0,0-1.437-0.898-2.842-1.845c-1.381-0.981-2.762-1.963-2.762-1.963
						L182.517,331.428z"/>
				</g>
				<g>
					<g>
						<path fill="none" d="M186.586,334.238c0,0-0.762-0.467-1.493-0.978c-0.727-0.518-1.454-1.034-1.454-1.034l-4.157,5.879
							c0,0,0.779,0.554,1.558,1.107c0.784,0.547,1.599,1.048,1.599,1.048L186.586,334.238z"/>
					</g>
					<g>
						<path fill-rule="evenodd" clip-rule="evenodd" fill="#FFFFFF" d="M181.223,339.342l4.04-5.96c0,0,0.326,0.221,0.659,0.432
							c0.332,0.212,0.664,0.425,0.664,0.425l-3.947,6.022c0,0-0.355-0.229-0.71-0.456
							C181.572,339.578,181.223,339.342,181.223,339.342z"/>
					</g>
					<g>
						<polygon fill-rule="evenodd" clip-rule="evenodd" fill="#FFFFFF" points="179.845,338.363 183.978,332.467 184.621,332.924 
							180.534,338.853 						"/>
					</g>
				</g>
			</g>
			<g>
				<g>
					<path fill-rule="evenodd" clip-rule="evenodd" fill="none" d="M177.51,327.563c0,0,0.304,0.253,0.772,0.617
						c0.466,0.366,1.088,0.854,1.71,1.343c0.626,0.483,1.233,0.991,1.719,1.332c0.483,0.344,0.806,0.572,0.806,0.572l-4.237,5.822
						c0,0-0.345-0.246-0.862-0.614c-0.52-0.366-1.172-0.908-1.842-1.426c-0.666-0.523-1.332-1.047-1.831-1.439
						c-0.501-0.391-0.827-0.661-0.827-0.661L177.51,327.563z"/>
				</g>
				<g>
					<g>
						<polygon fill="none" points="181.395,330.627 178.588,328.421 174.072,334.028 177.079,336.391 						"/>
					</g>
					<g>
						<polygon fill-rule="evenodd" clip-rule="evenodd" fill="#FFFFFF" points="175.75,335.348 180.155,329.652 181.395,330.627 
							177.079,336.391 						"/>
					</g>
					<g>
						<polygon fill-rule="evenodd" clip-rule="evenodd" fill="#FFFFFF" points="174.421,334.304 178.915,328.678 179.535,329.165 
							175.086,334.825 						"/>
					</g>
				</g>
			</g>
			<g>
				<g>
					<path fill-rule="evenodd" clip-rule="evenodd" fill="none" d="M172.782,323.362c0,0,1.12,1.119,2.337,2.13
						c1.195,1.036,2.391,2.071,2.391,2.071l-4.593,5.546c0,0-1.281-1.109-2.562-2.218c-1.302-1.086-2.503-2.281-2.503-2.281
						L172.782,323.362z"/>
				</g>
				<g>
					<g>
						<path fill="none" d="M176.468,326.66c0,0-0.674-0.584-1.349-1.168c-0.337-0.292-0.675-0.584-0.928-0.804
							c-0.257-0.214-0.412-0.375-0.412-0.375l-4.858,5.314c0,0,0.167,0.171,0.441,0.402c0.271,0.234,0.632,0.548,0.993,0.86
							c0.723,0.626,1.445,1.252,1.445,1.252L176.468,326.66z"/>
					</g>
					<g>
						<polygon fill-rule="evenodd" clip-rule="evenodd" fill="#FFFFFF" points="170.524,331.037 175.276,325.628 176.468,326.66 
							171.801,332.143 						"/>
					</g>
					<g>
						<polygon fill-rule="evenodd" clip-rule="evenodd" fill="#FFFFFF" points="169.248,329.93 174.083,324.596 174.68,325.111 
							169.886,330.483 						"/>
					</g>
				</g>
			</g>
			<g>
				<g>
					<path fill-rule="evenodd" clip-rule="evenodd" fill="none" d="M168.31,318.89c0,0,1.091,1.146,2.182,2.29
						c1.145,1.092,2.29,2.183,2.29,2.183l-4.93,5.248c0,0-1.226-1.17-2.452-2.339c-1.169-1.226-2.338-2.451-2.338-2.451
						L168.31,318.89z"/>
				</g>
				<g>
					<g>
						<path fill="none" d="M171.784,322.41c0,0-0.646-0.615-1.292-1.23c-0.616-0.646-1.231-1.292-1.231-1.292l-5.18,5
							c0,0,0.66,0.691,1.319,1.383c0.692,0.66,1.383,1.32,1.383,1.32L171.784,322.41z"/>
					</g>
					<g>
						<polygon fill-rule="evenodd" clip-rule="evenodd" fill="#FFFFFF" points="165.562,326.425 170.643,321.323 171.784,322.41 
							166.784,327.591 						"/>
					</g>
					<g>
						<polygon fill-rule="evenodd" clip-rule="evenodd" fill="#FFFFFF" points="164.388,325.21 169.547,320.188 170.092,320.759 
							164.971,325.821 						"/>
					</g>
				</g>
			</g>
			<g>
				<g>
					<path fill-rule="evenodd" clip-rule="evenodd" fill="none" d="M164.109,314.162c0,0,1.036,1.195,2.071,2.391
						c1.011,1.218,2.13,2.337,2.13,2.337l-5.248,4.931c0,0-1.196-1.202-2.281-2.504c-1.109-1.281-2.218-2.562-2.218-2.562
						L164.109,314.162z"/>
				</g>
				<g>
					<g>
						<path fill="none" d="M167.358,317.893c0,0-0.161-0.155-0.375-0.412c-0.219-0.253-0.511-0.591-0.803-0.928
							c-0.584-0.675-1.168-1.35-1.168-1.35l-5.482,4.668c0,0,0.625,0.723,1.251,1.444c0.313,0.361,0.626,0.723,0.861,0.993
							c0.231,0.274,0.402,0.441,0.402,0.441L167.358,317.893z"/>
					</g>
					<g>
						<path fill-rule="evenodd" clip-rule="evenodd" fill="#FFFFFF" d="M160.927,321.484l5.389-4.774c0,0,0.258,0.298,0.516,0.596
							c0.253,0.303,0.526,0.587,0.526,0.587l-5.314,4.857c0,0-0.292-0.305-0.564-0.628
							C161.203,321.804,160.927,321.484,160.927,321.484z"/>
					</g>
					<g>
						<polygon fill-rule="evenodd" clip-rule="evenodd" fill="#FFFFFF" points="159.82,320.207 165.283,315.518 165.8,316.113 
							160.374,320.846 						"/>
					</g>
				</g>
			</g>
			<g>
				<g>
					<path fill-rule="evenodd" clip-rule="evenodd" fill="none" d="M160.245,309.155c0,0,0.229,0.322,0.572,0.807
						c0.341,0.484,0.849,1.092,1.332,1.718c0.489,0.622,0.977,1.244,1.343,1.711c0.364,0.468,0.617,0.771,0.617,0.771l-5.545,4.593
						c0,0-0.271-0.325-0.662-0.826c-0.393-0.5-0.916-1.166-1.439-1.832c-0.518-0.67-1.059-1.322-1.425-1.842
						c-0.369-0.518-0.614-0.862-0.614-0.862L160.245,309.155z"/>
				</g>
				<g>
					<g>
						<polygon fill="none" points="163.251,313.083 161.045,310.277 155.281,314.593 157.643,317.6 						"/>
					</g>
					<g>
						<polygon fill-rule="evenodd" clip-rule="evenodd" fill="#FFFFFF" points="156.6,316.271 162.277,311.844 163.251,313.083 
							157.643,317.6 						"/>
					</g>
					<g>
						<polygon fill-rule="evenodd" clip-rule="evenodd" fill="#FFFFFF" points="155.556,314.942 161.302,310.604 161.79,311.224 
							156.078,315.607 						"/>
					</g>
				</g>
			</g>
			<g>
				<g>
					<path fill-rule="evenodd" clip-rule="evenodd" fill="none" d="M156.69,303.926c0,0,0.838,1.341,1.721,2.652
						c0.917,1.289,1.833,2.577,1.833,2.577l-5.822,4.237c0,0-0.981-1.381-1.963-2.762c-0.946-1.405-1.845-2.842-1.845-2.842
						L156.69,303.926z"/>
				</g>
				<g>
					<g>
						<path fill="none" d="M159.446,308.032c0,0-0.518-0.728-1.035-1.454c-0.511-0.731-0.978-1.493-0.978-1.493l-6.022,3.946
							c0,0.001,0.501,0.815,1.048,1.599c0.553,0.779,1.107,1.559,1.107,1.559L159.446,308.032z"/>
					</g>
					<g>
						<polygon fill-rule="evenodd" clip-rule="evenodd" fill="#FFFFFF" points="152.588,310.812 158.532,306.747 159.446,308.032 
							153.566,312.188 						"/>
					</g>
					<g>
						<polygon fill-rule="evenodd" clip-rule="evenodd" fill="#FFFFFF" points="151.651,309.406 157.658,305.435 158.083,306.099 
							152.108,310.117 						"/>
					</g>
				</g>
			</g>
			<g>
				<g>
					<path fill-rule="evenodd" clip-rule="evenodd" fill="none" d="M153.452,298.494c0,0,0.789,1.37,1.577,2.741
						c0.382,0.692,0.799,1.364,1.128,1.858c0.32,0.499,0.534,0.832,0.534,0.832l-6.076,3.863c0,0-0.229-0.356-0.571-0.892
						c-0.352-0.53-0.798-1.25-1.208-1.991c-0.845-1.469-1.689-2.938-1.689-2.938L153.452,298.494z"/>
				</g>
				<g>
					<g>
						<path fill="none" d="M155.946,302.765c0,0-0.121-0.188-0.301-0.469c-0.177-0.284-0.392-0.676-0.616-1.061
							c-0.445-0.773-0.889-1.547-0.889-1.547l-6.258,3.56c0,0,0.477,0.829,0.953,1.658c0.24,0.413,0.481,0.826,0.661,1.136
							c0.193,0.302,0.322,0.503,0.322,0.503L155.946,302.765z"/>
					</g>
					<g>
						<path fill-rule="evenodd" clip-rule="evenodd" fill="#FFFFFF" d="M148.946,305.099l6.187-3.684c0,0,0.196,0.342,0.392,0.684
							c0.211,0.333,0.421,0.666,0.421,0.666l-6.128,3.78c0,0-0.226-0.356-0.451-0.714
							C149.156,305.465,148.946,305.099,148.946,305.099z"/>
					</g>
					<g>
						<polygon fill-rule="evenodd" clip-rule="evenodd" fill="#FFFFFF" points="148.103,303.634 154.347,300.048 154.739,300.731 
							148.524,304.366 						"/>
					</g>
				</g>
			</g>
			<g>
				<g>
					<path fill-rule="evenodd" clip-rule="evenodd" fill="none" d="M150.582,292.86c0,0,0.165,0.359,0.412,0.898
						c0.271,0.527,0.631,1.23,0.992,1.935c0.36,0.703,0.72,1.407,0.99,1.935c0.131,0.267,0.251,0.482,0.34,0.631
						c0.086,0.149,0.135,0.235,0.135,0.235l-6.306,3.474c0,0-0.053-0.092-0.145-0.252c-0.095-0.159-0.224-0.391-0.365-0.676
						c-0.29-0.565-0.676-1.319-1.063-2.073c-0.386-0.754-0.772-1.509-1.062-2.074c-0.266-0.577-0.443-0.962-0.443-0.962
						L150.582,292.86z"/>
				</g>
				<g>
					<g>
						<polygon fill="none" points="152.799,297.28 151.172,294.104 144.702,297.264 146.445,300.668 						"/>
					</g>
					<g>
						<polygon fill-rule="evenodd" clip-rule="evenodd" fill="#FFFFFF" points="145.675,299.165 152.081,295.878 152.799,297.28 
							146.445,300.668 						"/>
					</g>
					<g>
						<polygon fill-rule="evenodd" clip-rule="evenodd" fill="#FFFFFF" points="144.904,297.66 151.361,294.475 151.721,295.176 
							145.29,298.412 						"/>
					</g>
				</g>
			</g>
			<g>
				<g>
					<path fill-rule="evenodd" clip-rule="evenodd" fill="none" d="M148.081,287.055c0,0,0.145,0.368,0.362,0.919
						c0.217,0.552,0.495,1.292,0.836,2.006c0.651,1.44,1.303,2.881,1.303,2.881l-6.513,3.07c0,0-0.698-1.544-1.396-3.088
						c-0.364-0.767-0.664-1.56-0.897-2.15s-0.389-0.985-0.389-0.985L148.081,287.055z"/>
				</g>
				<g>
					<g>
						<path fill="none" d="M150.015,291.604c0,0-0.368-0.813-0.735-1.625c-0.385-0.806-0.694-1.644-0.694-1.644l-6.657,2.745
							c0,0,0.333,0.896,0.744,1.761c0.394,0.871,0.788,1.743,0.788,1.743L150.015,291.604z"/>
					</g>
					<g>
						<polygon fill-rule="evenodd" clip-rule="evenodd" fill="#FFFFFF" points="142.764,293.045 149.365,290.169 150.015,291.604 
							143.46,294.585 						"/>
					</g>
					<g>
						<path fill-rule="evenodd" clip-rule="evenodd" fill="#FFFFFF" d="M142.092,291.494l6.645-2.771c0,0,0.072,0.184,0.145,0.366
							c0.072,0.184,0.158,0.361,0.158,0.361l-6.623,2.824c0,0-0.091-0.19-0.169-0.387S142.092,291.494,142.092,291.494z"/>
					</g>
				</g>
			</g>
			<g>
				<g>
					<path fill-rule="evenodd" clip-rule="evenodd" fill="none" d="M145.932,281.109c0,0,0.506,1.498,1.013,2.995
						c0.24,0.754,0.567,1.476,0.773,2.031c0.218,0.552,0.363,0.919,0.363,0.919l-6.694,2.652c0,0-0.155-0.394-0.389-0.985
						c-0.221-0.596-0.569-1.37-0.828-2.178c-0.543-1.605-1.086-3.211-1.086-3.211L145.932,281.109z"/>
				</g>
				<g>
					<g>
						<path fill="none" d="M147.575,285.772c0,0-0.082-0.207-0.205-0.519c-0.125-0.311-0.291-0.725-0.425-1.149
							c-0.286-0.846-0.571-1.69-0.571-1.69l-6.817,2.318c0,0,0.307,0.905,0.614,1.811c0.145,0.456,0.323,0.9,0.456,1.233
							c0.131,0.334,0.219,0.556,0.219,0.556L147.575,285.772z"/>
					</g>
					<g>
						<path fill-rule="evenodd" clip-rule="evenodd" fill="#FFFFFF" d="M140.242,286.755l6.769-2.454c0,0,0.122,0.375,0.274,0.739
							c0.145,0.366,0.29,0.732,0.29,0.732l-6.73,2.56c0,0-0.154-0.393-0.309-0.785C140.374,287.156,140.242,286.755,140.242,286.755
							z"/>
					</g>
					<g>
						<polygon fill-rule="evenodd" clip-rule="evenodd" fill="#FFFFFF" points="139.699,285.153 146.507,282.808 146.759,283.555 
							139.971,285.954 						"/>
					</g>
				</g>
			</g>
			<g>
				<g>
					<path fill-rule="evenodd" clip-rule="evenodd" fill="none" d="M144.151,275.044c0,0,0.102,0.382,0.265,0.952
						c0.162,0.569,0.378,1.33,0.594,2.091c0.221,0.758,0.419,1.524,0.605,2.087c0.19,0.562,0.317,0.936,0.317,0.936l-6.848,2.224
						c0,0-0.136-0.401-0.339-1.003c-0.199-0.604-0.413-1.425-0.65-2.238c-0.231-0.814-0.463-1.63-0.636-2.241
						c-0.174-0.611-0.283-1.021-0.283-1.021L144.151,275.044z"/>
				</g>
				<g>
					<g>
						<polygon fill="none" points="145.496,279.802 144.522,276.37 137.572,278.252 138.618,281.931 						"/>
					</g>
					<g>
						<polygon fill-rule="evenodd" clip-rule="evenodd" fill="#FFFFFF" points="138.155,280.306 145.066,278.286 145.496,279.802 
							138.618,281.931 						"/>
					</g>
					<g>
						<polygon fill-rule="evenodd" clip-rule="evenodd" fill="#FFFFFF" points="137.694,278.68 144.636,276.77 144.851,277.527 
							137.924,279.493 						"/>
					</g>
				</g>
			</g>
			<g>
				<g>
					<path fill-rule="evenodd" clip-rule="evenodd" fill="none" d="M142.801,268.867c0,0,0.253,1.562,0.64,3.096
						c0.355,1.54,0.71,3.081,0.71,3.081l-6.975,1.786c0,0-0.381-1.651-0.763-3.303c-0.412-1.646-0.686-3.318-0.686-3.318
						L142.801,268.867z"/>
				</g>
				<g>
					<g>
						<polygon fill="none" points="143.842,273.7 143.042,270.224 135.987,271.662 136.843,275.39 						"/>
					</g>
					<g>
						<polygon fill-rule="evenodd" clip-rule="evenodd" fill="#FFFFFF" points="136.463,273.744 143.488,272.165 143.842,273.7 
							136.843,275.39 						"/>
					</g>
					<g>
						<polygon fill-rule="evenodd" clip-rule="evenodd" fill="#FFFFFF" points="136.083,272.097 143.132,270.629 143.31,271.396 
							136.273,272.92 						"/>
					</g>
				</g>
			</g>
			<g>
				<g>
					<path fill-rule="evenodd" clip-rule="evenodd" fill="none" d="M141.825,262.621c0,0,0.05,0.392,0.125,0.979
						c0.084,0.587,0.152,1.377,0.294,2.154c0.278,1.557,0.557,3.112,0.557,3.112l-7.074,1.342c0,0-0.297-1.668-0.595-3.336
						c-0.151-0.834-0.227-1.679-0.317-2.308c-0.08-0.631-0.134-1.051-0.134-1.051L141.825,262.621z"/>
				</g>
				<g>
					<g>
						<path fill="none" d="M142.559,267.511c0,0-0.157-0.878-0.314-1.757c-0.089-0.437-0.13-0.882-0.175-1.213
							c-0.042-0.332-0.07-0.554-0.07-0.554l-7.131,0.991c0,0,0.03,0.237,0.075,0.593c0.049,0.355,0.095,0.832,0.189,1.301
							c0.167,0.941,0.335,1.883,0.335,1.883L142.559,267.511z"/>
					</g>
					<g>
						<polygon fill-rule="evenodd" clip-rule="evenodd" fill="#FFFFFF" points="135.17,267.092 142.281,265.959 142.559,267.511 
							135.467,268.755 						"/>
					</g>
					<g>
						<polygon fill-rule="evenodd" clip-rule="evenodd" fill="#FFFFFF" points="134.923,265.42 142.051,264.399 142.149,265.182 
							135.03,266.259 						"/>
					</g>
				</g>
			</g>
			<g>
				<g>
					<path fill-rule="evenodd" clip-rule="evenodd" fill="none" d="M141.228,256.325c0,0,0.12,1.576,0.24,3.153
						c0.042,0.791,0.161,1.573,0.233,2.162c0.075,0.588,0.125,0.98,0.125,0.98l-7.145,0.894c0,0-0.053-0.42-0.133-1.051
						c-0.077-0.631-0.202-1.469-0.249-2.315c-0.129-1.688-0.257-3.378-0.257-3.378L141.228,256.325z"/>
				</g>
				<g>
					<g>
						<path fill="none" d="M141.651,261.253c0,0-0.136-0.883-0.184-1.774c-0.067-0.89-0.135-1.779-0.135-1.779l-7.18,0.543
							c0,0,0.073,0.953,0.146,1.906c0.053,0.954,0.196,1.9,0.197,1.9L141.651,261.253z"/>
					</g>
					<g>
						<path fill-rule="evenodd" clip-rule="evenodd" fill="#FFFFFF" d="M134.315,260.37l7.168-0.685
							c0,0.001,0.021,0.395,0.068,0.786c0.05,0.391,0.1,0.781,0.1,0.781l-7.156,0.796c0,0-0.053-0.419-0.106-0.838
							C134.338,260.792,134.315,260.37,134.315,260.37z"/>
					</g>
					<g>
						<polygon fill-rule="evenodd" clip-rule="evenodd" fill="#FFFFFF" points="134.187,258.686 141.364,258.113 141.423,258.899 
							134.25,259.528 						"/>
					</g>
				</g>
			</g>
			<g>
				<g>
					<path fill-rule="evenodd" clip-rule="evenodd" fill="none" d="M141.009,250.001c0,0,0.041,1.582,0.081,3.164
						c0.023,0.79,0.031,1.582,0.062,2.174c0.045,0.592,0.076,0.986,0.076,0.986l-7.187,0.445c0,0-0.032-0.422-0.08-1.056
						c-0.033-0.634-0.043-1.481-0.068-2.327c-0.042-1.693-0.084-3.386-0.084-3.386L141.009,250.001z"/>
				</g>
				<g>
					<g>
						<polygon fill="none" points="141.134,254.949 141.044,251.38 133.845,251.477 133.942,255.297 						"/>
					</g>
					<g>
						<polygon fill-rule="evenodd" clip-rule="evenodd" fill="#FFFFFF" points="133.899,253.609 141.095,253.372 141.134,254.949 
							133.942,255.297 						"/>
					</g>
					<g>
						<polygon fill-rule="evenodd" clip-rule="evenodd" fill="#FFFFFF" points="133.856,251.921 141.055,251.795 141.075,252.584 
							133.877,252.766 						"/>
					</g>
				</g>
			</g>
			<g>
				<g>
					<path fill-rule="evenodd" clip-rule="evenodd" fill="none" d="M141.227,243.678c0,0-0.03,0.395-0.076,0.986
						c-0.017,0.593-0.039,1.384-0.062,2.174c-0.041,1.582-0.081,3.163-0.081,3.163l-7.2,0.001c0,0,0.042-1.693,0.084-3.386
						c0.025-0.847,0.036-1.693,0.068-2.328c0.048-0.633,0.08-1.056,0.08-1.056L141.227,243.678z"/>
				</g>
				<g>
					<g>
						<polygon fill="none" points="141.044,248.622 141.134,245.053 133.942,244.705 133.845,248.525 						"/>
					</g>
					<g>
						<polygon fill-rule="evenodd" clip-rule="evenodd" fill="#FFFFFF" points="133.887,246.838 141.084,247.046 141.044,248.622 
							133.845,248.525 						"/>
					</g>
					<g>
						<polygon fill-rule="evenodd" clip-rule="evenodd" fill="#FFFFFF" points="133.931,245.149 141.124,245.468 141.104,246.257 
							133.909,245.993 						"/>
					</g>
				</g>
			</g>
			<g>
				<g>
					<path fill-rule="evenodd" clip-rule="evenodd" fill="none" d="M141.825,237.382c0,0-0.05,0.393-0.125,0.98
						c-0.072,0.589-0.191,1.371-0.233,2.161c-0.12,1.577-0.24,3.154-0.24,3.154l-7.187-0.445c0,0,0.129-1.688,0.257-3.378
						c0.047-0.846,0.172-1.685,0.249-2.315c0.08-0.63,0.133-1.051,0.133-1.051L141.825,237.382z"/>
				</g>
				<g>
					<g>
						<path fill="none" d="M141.332,242.303c0,0,0.067-0.89,0.135-1.779c0.047-0.892,0.184-1.774,0.184-1.774l-7.156-0.796
							c0,0-0.144,0.946-0.197,1.901c-0.073,0.952-0.146,1.905-0.146,1.905L141.332,242.303z"/>
					</g>
					<g>
						<polygon fill-rule="evenodd" clip-rule="evenodd" fill="#FFFFFF" points="134.281,240.076 141.451,240.73 141.332,242.303 
							134.152,241.76 						"/>
					</g>
					<g>
						<path fill-rule="evenodd" clip-rule="evenodd" fill="#FFFFFF" d="M134.438,238.395l7.16,0.767c0,0-0.025,0.195-0.05,0.391
							c-0.03,0.195-0.038,0.393-0.037,0.393l-7.166-0.71c0,0,0.009-0.212,0.041-0.421
							C134.412,238.604,134.438,238.395,134.438,238.395z"/>
					</g>
				</g>
			</g>
			<g>
				<g>
					<path fill-rule="evenodd" clip-rule="evenodd" fill="none" d="M142.8,231.136c0,0-0.278,1.556-0.556,3.112
						c-0.143,0.777-0.21,1.567-0.294,2.153c-0.075,0.589-0.125,0.98-0.125,0.98l-7.145-0.894c0,0,0.053-0.42,0.133-1.05
						c0.09-0.629,0.166-1.475,0.317-2.308c0.297-1.669,0.595-3.337,0.595-3.337L142.8,231.136z"/>
				</g>
				<g>
					<g>
						<path fill="none" d="M141.998,236.015c0,0,0.028-0.222,0.07-0.554c0.045-0.331,0.086-0.776,0.175-1.214
							c0.157-0.878,0.314-1.756,0.314-1.756l-7.092-1.244c0,0-0.168,0.941-0.335,1.883c-0.094,0.469-0.14,0.945-0.188,1.301
							c-0.045,0.355-0.076,0.593-0.076,0.593L141.998,236.015z"/>
					</g>
					<g>
						<path fill-rule="evenodd" clip-rule="evenodd" fill="#FFFFFF" d="M135.092,233.35l7.115,1.103c0,0-0.066,0.389-0.11,0.78
							c-0.049,0.391-0.099,0.782-0.099,0.782l-7.131-0.991c0,0,0.053-0.419,0.107-0.838
							C135.021,233.766,135.092,233.35,135.092,233.35z"/>
					</g>
					<g>
						<polygon fill-rule="evenodd" clip-rule="evenodd" fill="#FFFFFF" points="135.388,231.686 142.485,232.9 142.346,233.676 
							135.24,232.518 						"/>
					</g>
				</g>
			</g>
			<g>
				<g>
					<path fill-rule="evenodd" clip-rule="evenodd" fill="none" d="M144.15,224.959c0,0-0.355,1.54-0.71,3.081
						c-0.387,1.533-0.64,3.096-0.64,3.096l-7.074-1.342c0,0,0.273-1.673,0.686-3.318c0.382-1.651,0.763-3.302,0.763-3.302
						L144.15,224.959z"/>
				</g>
				<g>
					<g>
						<polygon fill="none" points="143.042,229.778 143.841,226.301 136.842,224.612 135.986,228.34 						"/>
					</g>
					<g>
						<polygon fill-rule="evenodd" clip-rule="evenodd" fill="#FFFFFF" points="136.362,226.692 143.394,228.242 143.042,229.778 
							135.986,228.34 						"/>
					</g>
					<g>
						<polygon fill-rule="evenodd" clip-rule="evenodd" fill="#FFFFFF" points="136.742,225.046 143.748,226.706 143.571,227.474 
							136.552,225.869 						"/>
					</g>
				</g>
			</g>
			<g>
				<g>
					<path fill-rule="evenodd" clip-rule="evenodd" fill="none" d="M145.931,218.893c0,0-0.127,0.375-0.317,0.936
						c-0.186,0.563-0.384,1.329-0.605,2.088c-0.216,0.76-0.432,1.52-0.594,2.09c-0.163,0.57-0.264,0.952-0.264,0.952l-6.976-1.785
						c0,0,0.108-0.41,0.283-1.021c0.173-0.612,0.405-1.427,0.636-2.242c0.237-0.813,0.451-1.634,0.65-2.237
						c0.203-0.602,0.339-1.003,0.339-1.003L145.931,218.893z"/>
				</g>
				<g>
					<g>
						<polygon fill="none" points="144.521,223.632 145.495,220.2 138.617,218.071 137.571,221.75 						"/>
					</g>
					<g>
						<polygon fill-rule="evenodd" clip-rule="evenodd" fill="#FFFFFF" points="138.033,220.125 144.952,222.116 144.521,223.632 
							137.571,221.75 						"/>
					</g>
					<g>
						<polygon fill-rule="evenodd" clip-rule="evenodd" fill="#FFFFFF" points="138.495,218.499 145.382,220.599 145.167,221.357 
							138.264,219.312 						"/>
					</g>
				</g>
			</g>
			<g>
				<g>
					<path fill-rule="evenodd" clip-rule="evenodd" fill="none" d="M148.079,212.948c0,0-0.145,0.368-0.362,0.919
						c-0.206,0.556-0.534,1.277-0.773,2.031c-0.506,1.498-1.013,2.995-1.013,2.995l-6.848-2.223c0,0,0.543-1.605,1.087-3.211
						c0.258-0.808,0.606-1.583,0.828-2.178c0.233-0.591,0.388-0.985,0.388-0.985L148.079,212.948z"/>
				</g>
				<g>
					<g>
						<path fill="none" d="M146.373,217.587c0,0,0.285-0.845,0.571-1.69c0.134-0.425,0.301-0.839,0.425-1.15
							c0.123-0.311,0.205-0.519,0.205-0.519l-6.73-2.56c0,0-0.087,0.223-0.219,0.556c-0.133,0.333-0.311,0.777-0.456,1.233
							c-0.307,0.906-0.614,1.812-0.614,1.812L146.373,217.587z"/>
					</g>
					<g>
						<polygon fill-rule="evenodd" clip-rule="evenodd" fill="#FFFFFF" points="140.098,213.67 146.877,216.095 146.373,217.587 
							139.556,215.27 						"/>
					</g>
					<g>
						<polygon fill-rule="evenodd" clip-rule="evenodd" fill="#FFFFFF" points="140.681,212.083 147.421,214.615 147.132,215.349 
							140.372,212.87 						"/>
					</g>
				</g>
			</g>
			<g>
				<g>
					<path fill-rule="evenodd" clip-rule="evenodd" fill="none" d="M150.581,207.142c0,0-0.651,1.44-1.303,2.881
						c-0.341,0.714-0.619,1.455-0.836,2.006c-0.217,0.551-0.362,0.919-0.362,0.919l-6.694-2.652c0,0,0.156-0.395,0.389-0.985
						c0.234-0.591,0.533-1.384,0.897-2.15c0.698-1.544,1.396-3.088,1.396-3.088L150.581,207.142z"/>
				</g>
				<g>
					<g>
						<path fill="none" d="M148.584,211.666c0,0,0.309-0.837,0.694-1.643c0.368-0.813,0.735-1.625,0.735-1.625l-6.555-2.98
							c0,0-0.394,0.871-0.788,1.743c-0.411,0.864-0.744,1.761-0.744,1.761L148.584,211.666z"/>
					</g>
					<g>
						<path fill-rule="evenodd" clip-rule="evenodd" fill="#FFFFFF" d="M142.58,207.363l6.613,2.849c0,0-0.16,0.36-0.319,0.72
							c-0.145,0.367-0.289,0.733-0.289,0.733l-6.657-2.744c0,0,0.155-0.393,0.311-0.786
							C142.409,207.75,142.58,207.363,142.58,207.363z"/>
					</g>
					<g>
						<polygon fill-rule="evenodd" clip-rule="evenodd" fill="#FFFFFF" points="143.275,205.823 149.842,208.775 149.518,209.494 
							142.928,206.593 						"/>
					</g>
				</g>
			</g>
			<g>
				<g>
					<path fill-rule="evenodd" clip-rule="evenodd" fill="none" d="M153.451,201.509c0,0-0.049,0.085-0.136,0.235
						c-0.089,0.148-0.209,0.364-0.34,0.63c-0.27,0.528-0.63,1.231-0.99,1.935c-0.361,0.704-0.722,1.407-0.992,1.935
						c-0.247,0.539-0.412,0.898-0.412,0.898l-6.513-3.07c0,0,0.177-0.385,0.443-0.962c0.29-0.566,0.675-1.32,1.062-2.074
						c0.386-0.754,0.773-1.508,1.063-2.074c0.141-0.285,0.269-0.516,0.364-0.675c0.092-0.161,0.145-0.252,0.145-0.252
						L153.451,201.509z"/>
				</g>
				<g>
					<g>
						<polygon fill="none" points="151.171,205.897 152.798,202.721 146.444,199.334 144.701,202.738 						"/>
					</g>
					<g>
						<polygon fill-rule="evenodd" clip-rule="evenodd" fill="#FFFFFF" points="145.47,201.234 151.89,204.494 151.171,205.897 
							144.701,202.738 						"/>
					</g>
					<g>
						<polygon fill-rule="evenodd" clip-rule="evenodd" fill="#FFFFFF" points="146.241,199.729 152.609,203.091 152.25,203.792 
							145.855,200.482 						"/>
					</g>
				</g>
			</g>
			<g>
				<g>
					<path fill-rule="evenodd" clip-rule="evenodd" fill="none" d="M156.688,196.077c0,0-0.213,0.333-0.534,0.832
						c-0.329,0.494-0.746,1.166-1.127,1.858c-0.788,1.371-1.577,2.742-1.577,2.742l-6.307-3.474c0,0,0.845-1.469,1.689-2.938
						c0.411-0.742,0.857-1.461,1.208-1.991c0.343-0.535,0.571-0.892,0.571-0.892L156.688,196.077z"/>
				</g>
				<g>
					<g>
						<path fill="none" d="M154.139,200.313c0,0,0.444-0.773,0.889-1.547c0.224-0.386,0.448-0.771,0.616-1.061
							c0.181-0.282,0.301-0.469,0.301-0.469l-6.128-3.78c0,0-0.129,0.202-0.322,0.503c-0.18,0.31-0.42,0.723-0.661,1.136
							c-0.477,0.829-0.954,1.657-0.954,1.657L154.139,200.313z"/>
					</g>
					<g>
						<polygon fill-rule="evenodd" clip-rule="evenodd" fill="#FFFFFF" points="148.722,195.289 154.924,198.947 154.139,200.313 
							147.88,196.753 						"/>
					</g>
					<g>
						<path fill-rule="evenodd" clip-rule="evenodd" fill="#FFFFFF" d="M149.577,193.832l6.144,3.754c0,0-0.112,0.163-0.207,0.335
							c-0.098,0.171-0.196,0.342-0.196,0.342l-6.173-3.707c0,0,0.105-0.183,0.211-0.366
							C149.457,194.006,149.577,193.831,149.577,193.832z"/>
					</g>
				</g>
			</g>
			<g>
				<g>
					<path fill-rule="evenodd" clip-rule="evenodd" fill="none" d="M160.243,190.847c0,0-0.917,1.289-1.833,2.578
						c-0.882,1.312-1.721,2.653-1.721,2.653l-6.076-3.863c0,0,0.899-1.437,1.845-2.842c0.981-1.381,1.963-2.762,1.963-2.762
						L160.243,190.847z"/>
				</g>
				<g>
					<g>
						<path fill="none" d="M157.433,194.917c0,0,0.466-0.761,0.977-1.493c0.518-0.727,1.035-1.454,1.035-1.454l-5.879-4.157
							c0,0-0.554,0.779-1.107,1.559c-0.547,0.784-1.048,1.599-1.048,1.599L157.433,194.917z"/>
					</g>
					<g>
						<path fill-rule="evenodd" clip-rule="evenodd" fill="#FFFFFF" d="M152.329,189.553l5.96,4.04c0,0-0.221,0.326-0.432,0.66
							c-0.212,0.332-0.425,0.664-0.425,0.664l-6.022-3.946c0,0,0.228-0.355,0.456-0.711
							C152.092,189.903,152.329,189.553,152.329,189.553z"/>
					</g>
					<g>
						<polygon fill-rule="evenodd" clip-rule="evenodd" fill="#FFFFFF" points="153.308,188.176 159.204,192.308 158.747,192.951 
							152.818,188.864 						"/>
					</g>
				</g>
			</g>
			<g>
				<g>
					<path fill-rule="evenodd" clip-rule="evenodd" fill="none" d="M164.107,185.84c0,0-0.253,0.304-0.617,0.772
						c-0.367,0.466-0.855,1.088-1.343,1.71c-0.483,0.626-0.991,1.233-1.332,1.719c-0.343,0.483-0.572,0.806-0.572,0.806
						l-5.822-4.236c0,0,0.246-0.345,0.614-0.863c0.366-0.519,0.908-1.171,1.425-1.842c0.523-0.666,1.047-1.332,1.439-1.832
						c0.391-0.501,0.662-0.827,0.662-0.827L164.107,185.84z"/>
				</g>
				<g>
					<g>
						<polygon fill="none" points="161.043,189.725 163.25,186.918 157.642,182.402 155.28,185.409 						"/>
					</g>
					<g>
						<polygon fill-rule="evenodd" clip-rule="evenodd" fill="#FFFFFF" points="156.323,184.081 162.019,188.485 161.043,189.725 
							155.28,185.409 						"/>
					</g>
					<g>
						<polygon fill-rule="evenodd" clip-rule="evenodd" fill="#FFFFFF" points="157.367,182.752 162.993,187.245 162.506,187.865 
							156.845,183.416 						"/>
					</g>
				</g>
			</g>
			<g>
				<g>
					<path fill-rule="evenodd" clip-rule="evenodd" fill="none" d="M168.309,181.112c0,0-1.119,1.12-2.13,2.337
						c-1.036,1.195-2.071,2.391-2.071,2.391l-5.545-4.593c0,0,1.109-1.281,2.218-2.562c1.085-1.302,2.281-2.503,2.281-2.503
						L168.309,181.112z"/>
				</g>
				<g>
					<g>
						<path fill="none" d="M165.01,184.798c0,0,0.584-0.674,1.168-1.349c0.292-0.337,0.584-0.675,0.803-0.928
							c0.215-0.257,0.375-0.412,0.375-0.412l-5.314-4.858c0,0-0.171,0.167-0.402,0.441c-0.235,0.271-0.548,0.632-0.861,0.993
							c-0.625,0.722-1.251,1.445-1.251,1.445L165.01,184.798z"/>
					</g>
					<g>
						<polygon fill-rule="evenodd" clip-rule="evenodd" fill="#FFFFFF" points="160.634,178.854 166.042,183.606 165.01,184.798 
							159.528,180.131 						"/>
					</g>
					<g>
						<polygon fill-rule="evenodd" clip-rule="evenodd" fill="#FFFFFF" points="161.741,177.578 167.075,182.414 166.559,183.01 
							161.187,178.216 						"/>
					</g>
				</g>
			</g>
			<g>
				<g>
					<path fill-rule="evenodd" clip-rule="evenodd" fill="none" d="M172.78,176.64c0,0-1.145,1.091-2.29,2.182
						c-1.091,1.145-2.182,2.29-2.182,2.29l-5.248-4.93c0,0,1.169-1.226,2.338-2.452c1.226-1.169,2.452-2.338,2.452-2.338
						L172.78,176.64z"/>
				</g>
				<g>
					<g>
						<path fill="none" d="M169.26,180.114c0,0,0.616-0.646,1.231-1.292c0.646-0.615,1.292-1.23,1.292-1.23l-5.001-5.18
							c0,0-0.691,0.66-1.383,1.32c-0.66,0.691-1.32,1.383-1.32,1.383L169.26,180.114z"/>
					</g>
					<g>
						<polygon fill-rule="evenodd" clip-rule="evenodd" fill="#FFFFFF" points="165.246,173.892 170.347,178.973 169.26,180.114 
							164.08,175.114 						"/>
					</g>
					<g>
						<polygon fill-rule="evenodd" clip-rule="evenodd" fill="#FFFFFF" points="166.46,172.718 171.482,177.877 170.911,178.421 
							165.849,173.301 						"/>
					</g>
				</g>
			</g>
			<g>
				<g>
					<path fill-rule="evenodd" clip-rule="evenodd" fill="none" d="M177.508,172.438c0,0-1.195,1.036-2.39,2.072
						c-1.218,1.011-2.337,2.13-2.337,2.13l-4.93-5.248c0,0,1.201-1.196,2.503-2.282c1.281-1.109,2.562-2.218,2.562-2.218
						L177.508,172.438z"/>
				</g>
				<g>
					<g>
						<path fill="none" d="M173.778,175.688c0,0,0.156-0.161,0.413-0.375c0.253-0.219,0.59-0.511,0.928-0.803
							c0.674-0.584,1.349-1.168,1.349-1.168l-4.667-5.482c0,0-0.723,0.626-1.445,1.252c-0.361,0.313-0.722,0.626-0.993,0.861
							c-0.274,0.231-0.441,0.402-0.441,0.402L173.778,175.688z"/>
					</g>
					<g>
						<path fill-rule="evenodd" clip-rule="evenodd" fill="#FFFFFF" d="M170.186,169.257l4.775,5.389c0,0-0.298,0.258-0.596,0.516
							c-0.303,0.253-0.586,0.527-0.587,0.526l-4.858-5.314c0,0,0.305-0.292,0.628-0.564
							C169.867,169.533,170.186,169.257,170.186,169.257z"/>
					</g>
					<g>
						<polygon fill-rule="evenodd" clip-rule="evenodd" fill="#FFFFFF" points="171.463,168.15 176.153,173.613 175.557,174.13 
							170.824,168.704 						"/>
					</g>
				</g>
			</g>
			<g>
				<g>
					<path fill-rule="evenodd" clip-rule="evenodd" fill="none" d="M182.515,168.574c0,0-0.322,0.229-0.806,0.572
						c-0.485,0.341-1.093,0.849-1.719,1.332c-0.622,0.488-1.244,0.977-1.71,1.343c-0.469,0.364-0.772,0.617-0.772,0.617
						l-4.592-5.545c0,0,0.325-0.271,0.826-0.661c0.5-0.393,1.166-0.917,1.832-1.44c0.67-0.518,1.323-1.059,1.842-1.425
						c0.518-0.369,0.863-0.614,0.863-0.614L182.515,168.574z"/>
				</g>
				<g>
					<g>
						<polygon fill="none" points="178.587,171.581 181.393,169.375 177.077,163.611 174.071,165.973 						"/>
					</g>
					<g>
						<polygon fill-rule="evenodd" clip-rule="evenodd" fill="#FFFFFF" points="175.398,164.93 179.827,170.606 178.587,171.581 
							174.071,165.973 						"/>
					</g>
					<g>
						<polygon fill-rule="evenodd" clip-rule="evenodd" fill="#FFFFFF" points="176.728,163.886 181.067,169.631 180.447,170.119 
							176.063,164.408 						"/>
					</g>
				</g>
			</g>
			<g>
				<g>
					<path fill-rule="evenodd" clip-rule="evenodd" fill="none" d="M187.745,165.02c0,0-1.341,0.838-2.653,1.721
						c-1.289,0.917-2.577,1.833-2.577,1.833l-4.237-5.822c0,0,1.381-0.981,2.762-1.963c1.405-0.946,2.841-1.846,2.842-1.845
						L187.745,165.02z"/>
				</g>
				<g>
					<g>
						<path fill="none" d="M183.638,167.775c0,0,0.727-0.518,1.454-1.035c0.731-0.511,1.493-0.978,1.493-0.977l-3.946-6.022
							c0,0-0.815,0.501-1.599,1.048c-0.779,0.554-1.559,1.107-1.559,1.107L183.638,167.775z"/>
					</g>
					<g>
						<polygon fill-rule="evenodd" clip-rule="evenodd" fill="#FFFFFF" points="180.858,160.918 184.923,166.861 183.638,167.775 
							179.481,161.896 						"/>
					</g>
					<g>
						<polygon fill-rule="evenodd" clip-rule="evenodd" fill="#FFFFFF" points="182.264,159.981 186.235,165.987 185.571,166.413 
							181.553,160.438 						"/>
					</g>
				</g>
			</g>
			<g>
				<g>
					<path fill-rule="evenodd" clip-rule="evenodd" fill="none" d="M193.176,161.782c0,0-1.371,0.788-2.742,1.576
						c-0.692,0.382-1.364,0.799-1.858,1.128c-0.499,0.32-0.832,0.534-0.832,0.534l-3.863-6.076c0,0,0.356-0.229,0.892-0.571
						c0.53-0.351,1.25-0.798,1.991-1.208c1.469-0.845,2.938-1.689,2.938-1.689L193.176,161.782z"/>
				</g>
				<g>
					<g>
						<path fill="none" d="M188.905,164.275c0,0,0.188-0.121,0.469-0.301c0.284-0.177,0.675-0.391,1.061-0.616
							c0.773-0.445,1.547-0.889,1.547-0.889l-3.56-6.258c0,0-0.829,0.477-1.658,0.953c-0.413,0.241-0.826,0.481-1.136,0.661
							c-0.302,0.193-0.503,0.322-0.503,0.322L188.905,164.275z"/>
					</g>
					<g>
						<path fill-rule="evenodd" clip-rule="evenodd" fill="#FFFFFF" d="M186.571,157.275l3.684,6.187c0,0-0.342,0.196-0.684,0.393
							c-0.333,0.21-0.666,0.421-0.666,0.421l-3.78-6.128c0,0,0.357-0.225,0.714-0.451
							C186.205,157.486,186.571,157.275,186.571,157.275z"/>
					</g>
					<g>
						<polygon fill-rule="evenodd" clip-rule="evenodd" fill="#FFFFFF" points="188.036,156.433 191.622,162.676 190.938,163.069 
							187.304,156.854 						"/>
					</g>
				</g>
			</g>
			<g>
				<g>
					<path fill-rule="evenodd" clip-rule="evenodd" fill="none" d="M198.81,158.912c0,0-0.359,0.165-0.898,0.412
						c-0.528,0.271-1.231,0.631-1.935,0.992c-0.704,0.36-1.407,0.72-1.935,0.99c-0.266,0.131-0.482,0.251-0.63,0.34
						c-0.15,0.086-0.235,0.136-0.235,0.136l-3.475-6.307c0,0,0.092-0.053,0.252-0.145c0.159-0.095,0.391-0.224,0.676-0.365
						c0.565-0.29,1.319-0.676,2.073-1.063c0.754-0.386,1.509-0.772,2.074-1.061c0.577-0.266,0.962-0.443,0.962-0.443L198.81,158.912
						z"/>
				</g>
				<g>
					<g>
						<polygon fill="none" points="194.389,161.128 197.565,159.501 194.406,153.032 191.002,154.775 						"/>
					</g>
					<g>
						<polygon fill-rule="evenodd" clip-rule="evenodd" fill="#FFFFFF" points="192.505,154.004 195.792,160.41 194.389,161.128 
							191.002,154.775 						"/>
					</g>
					<g>
						<polygon fill-rule="evenodd" clip-rule="evenodd" fill="#FFFFFF" points="194.01,153.234 197.196,159.691 196.494,160.051 
							193.257,153.619 						"/>
					</g>
				</g>
			</g>
			<g>
				<g>
					<path fill-rule="evenodd" clip-rule="evenodd" fill="none" d="M204.615,156.41c0,0-0.368,0.145-0.919,0.362
						c-0.552,0.218-1.292,0.496-2.006,0.837c-1.44,0.651-2.881,1.303-2.881,1.303l-3.07-6.513c0,0,1.544-0.698,3.088-1.396
						c0.766-0.364,1.559-0.664,2.15-0.897c0.591-0.233,0.985-0.389,0.985-0.389L204.615,156.41z"/>
				</g>
				<g>
					<g>
						<path fill="none" d="M200.065,158.344c0,0,0.813-0.367,1.625-0.735c0.805-0.385,1.643-0.694,1.643-0.694l-2.745-6.657
							c0,0-0.897,0.333-1.761,0.744c-0.871,0.394-1.743,0.788-1.743,0.788L200.065,158.344z"/>
					</g>
					<g>
						<polygon fill-rule="evenodd" clip-rule="evenodd" fill="#FFFFFF" points="198.625,151.094 201.501,157.694 200.065,158.344 
							197.085,151.79 						"/>
					</g>
					<g>
						<path fill-rule="evenodd" clip-rule="evenodd" fill="#FFFFFF" d="M200.176,150.422l2.772,6.645c0,0-0.184,0.072-0.367,0.144
							c-0.183,0.072-0.361,0.158-0.361,0.158l-2.824-6.623c0,0,0.19-0.091,0.387-0.169
							C199.979,150.5,200.176,150.422,200.176,150.422z"/>
					</g>
				</g>
			</g>
			<g>
				<g>
					<path fill-rule="evenodd" clip-rule="evenodd" fill="none" d="M210.561,154.261c0,0-1.498,0.507-2.995,1.013
						c-0.754,0.239-1.476,0.567-2.031,0.773c-0.552,0.218-0.919,0.363-0.919,0.363l-2.652-6.694c0,0,0.394-0.156,0.985-0.389
						c0.596-0.221,1.371-0.569,2.178-0.828c1.605-0.543,3.211-1.087,3.211-1.087L210.561,154.261z"/>
				</g>
				<g>
					<g>
						<path fill="none" d="M205.897,155.904c0,0,0.208-0.082,0.519-0.205c0.311-0.124,0.724-0.291,1.15-0.425
							c0.845-0.286,1.69-0.571,1.69-0.571l-2.318-6.817c0,0-0.906,0.307-1.812,0.614c-0.456,0.145-0.9,0.323-1.233,0.456
							c-0.333,0.131-0.556,0.219-0.556,0.219L205.897,155.904z"/>
					</g>
					<g>
						<path fill-rule="evenodd" clip-rule="evenodd" fill="#FFFFFF" d="M204.916,148.571l2.453,6.77c0,0-0.375,0.122-0.738,0.274
							c-0.367,0.145-0.733,0.29-0.733,0.29l-2.56-6.73c0,0,0.393-0.155,0.786-0.309
							C204.514,148.703,204.916,148.572,204.916,148.571z"/>
					</g>
					<g>
						<polygon fill-rule="evenodd" clip-rule="evenodd" fill="#FFFFFF" points="206.517,148.029 208.863,154.836 208.116,155.088 
							205.716,148.3 						"/>
					</g>
				</g>
			</g>
			<g>
				<g>
					<path fill-rule="evenodd" clip-rule="evenodd" fill="none" d="M216.626,152.48c0,0-0.382,0.102-0.952,0.265
						c-0.57,0.162-1.331,0.378-2.091,0.594c-0.759,0.221-1.525,0.419-2.087,0.605c-0.562,0.19-0.936,0.317-0.936,0.317l-2.224-6.848
						c0,0,0.401-0.135,1.003-0.339c0.604-0.199,1.424-0.413,2.237-0.65c0.815-0.231,1.631-0.463,2.242-0.636
						c0.611-0.174,1.021-0.283,1.021-0.283L216.626,152.48z"/>
				</g>
				<g>
					<g>
						<polygon fill="none" points="211.868,153.826 215.3,152.852 213.418,145.902 209.739,146.947 						"/>
					</g>
					<g>
						<polygon fill-rule="evenodd" clip-rule="evenodd" fill="#FFFFFF" points="211.364,146.485 213.384,153.396 211.868,153.826 
							209.739,146.947 						"/>
					</g>
					<g>
						<polygon fill-rule="evenodd" clip-rule="evenodd" fill="#FFFFFF" points="212.99,146.023 214.901,152.965 214.143,153.181 
							212.177,146.254 						"/>
					</g>
				</g>
			</g>
			<g>
				<g>
					<path fill-rule="evenodd" clip-rule="evenodd" fill="none" d="M222.803,151.13c0,0-1.562,0.253-3.096,0.64
						c-1.541,0.355-3.081,0.71-3.081,0.71l-1.786-6.975c0,0,1.651-0.382,3.302-0.763c1.646-0.412,3.318-0.686,3.318-0.686
						L222.803,151.13z"/>
				</g>
				<g>
					<g>
						<polygon fill="none" points="217.969,152.171 221.446,151.372 220.008,144.316 216.28,145.172 						"/>
					</g>
					<g>
						<polygon fill-rule="evenodd" clip-rule="evenodd" fill="#FFFFFF" points="217.926,144.792 219.505,151.817 217.969,152.171 
							216.28,145.172 						"/>
					</g>
					<g>
						<polygon fill-rule="evenodd" clip-rule="evenodd" fill="#FFFFFF" points="219.573,144.413 221.041,151.462 220.273,151.64 
							218.75,144.603 						"/>
					</g>
				</g>
			</g>
			<g>
				<g>
					<path fill-rule="evenodd" clip-rule="evenodd" fill="none" d="M229.049,150.155c0,0-0.392,0.05-0.98,0.125
						c-0.586,0.084-1.376,0.152-2.154,0.294c-1.556,0.278-3.112,0.557-3.112,0.557l-1.342-7.074c0,0,1.668-0.298,3.336-0.595
						c0.833-0.152,1.679-0.227,2.308-0.317c0.63-0.08,1.05-0.133,1.05-0.133L229.049,150.155z"/>
				</g>
				<g>
					<g>
						<path fill="none" d="M224.16,150.888c0,0,0.878-0.157,1.756-0.314c0.438-0.089,0.882-0.13,1.214-0.176
							c0.332-0.042,0.553-0.07,0.553-0.07l-0.992-7.132c0,0-0.237,0.03-0.592,0.076c-0.355,0.049-0.832,0.095-1.301,0.189
							c-0.941,0.167-1.882,0.335-1.882,0.335L224.16,150.888z"/>
					</g>
					<g>
						<polygon fill-rule="evenodd" clip-rule="evenodd" fill="#FFFFFF" points="224.579,143.5 225.711,150.61 224.16,150.888 
							222.916,143.796 						"/>
					</g>
					<g>
						<polygon fill-rule="evenodd" clip-rule="evenodd" fill="#FFFFFF" points="226.25,143.253 227.271,150.38 226.488,150.479 
							225.412,143.36 						"/>
					</g>
				</g>
			</g>
			<g>
				<g>
					<path fill-rule="evenodd" clip-rule="evenodd" fill="none" d="M235.345,149.557c0,0-1.577,0.12-3.154,0.24
						c-0.791,0.042-1.573,0.161-2.161,0.233c-0.588,0.075-0.98,0.125-0.98,0.125l-0.894-7.145c0,0,0.42-0.053,1.051-0.133
						c0.631-0.077,1.469-0.202,2.315-0.25c1.689-0.128,3.378-0.257,3.378-0.257L235.345,149.557z"/>
				</g>
				<g>
					<g>
						<path fill="none" d="M230.417,149.98c0,0,0.882-0.137,1.774-0.184c0.89-0.068,1.78-0.135,1.78-0.135l-0.543-7.18
							c0,0-0.953,0.073-1.906,0.146c-0.955,0.053-1.901,0.197-1.901,0.197L230.417,149.98z"/>
					</g>
					<g>
						<path fill-rule="evenodd" clip-rule="evenodd" fill="#FFFFFF" d="M231.3,142.645l0.684,7.168c0,0-0.394,0.021-0.785,0.068
							c-0.391,0.05-0.782,0.1-0.782,0.1l-0.796-7.156c0,0,0.419-0.053,0.838-0.106C230.878,142.668,231.3,142.645,231.3,142.645z"/>
					</g>
					<g>
						<polygon fill-rule="evenodd" clip-rule="evenodd" fill="#FFFFFF" points="232.984,142.516 233.557,149.693 232.771,149.753 
							232.142,142.58 						"/>
					</g>
				</g>
			</g>
			<g>
				<g>
					<path fill-rule="evenodd" clip-rule="evenodd" fill="none" d="M241.668,149.338c0,0-1.582,0.041-3.163,0.081
						c-0.791,0.023-1.582,0.031-2.174,0.062c-0.592,0.045-0.986,0.076-0.986,0.076l-0.446-7.187c0,0,0.422-0.032,1.056-0.08
						c0.634-0.033,1.481-0.043,2.328-0.068c1.693-0.042,3.386-0.084,3.386-0.084V149.338z"/>
				</g>
				<g>
					<g>
						<polygon fill="none" points="236.721,149.464 240.291,149.374 240.193,142.175 236.373,142.272 						"/>
					</g>
					<g>
						<polygon fill-rule="evenodd" clip-rule="evenodd" fill="#FFFFFF" points="238.061,142.229 238.298,149.425 236.721,149.464 
							236.373,142.272 						"/>
					</g>
					<g>
						<polygon fill-rule="evenodd" clip-rule="evenodd" fill="#FFFFFF" points="239.749,142.186 239.875,149.385 239.086,149.405 
							238.905,142.207 						"/>
					</g>
				</g>
			</g>
			<g>
				<g>
					<path fill-rule="evenodd" clip-rule="evenodd" fill="none" d="M247.992,149.557c0,0-0.394-0.03-0.985-0.075
						c-0.592-0.031-1.384-0.039-2.174-0.062c-1.582-0.041-3.164-0.081-3.164-0.081v-7.2c0,0,1.693,0.042,3.386,0.084
						c0.846,0.025,1.693,0.036,2.328,0.068c0.633,0.048,1.056,0.08,1.056,0.08L247.992,149.557z"/>
				</g>
				<g>
					<g>
						<polygon fill="none" points="243.047,149.374 246.617,149.464 246.965,142.272 243.145,142.175 						"/>
					</g>
					<g>
						<polygon fill-rule="evenodd" clip-rule="evenodd" fill="#FFFFFF" points="244.832,142.217 244.624,149.414 243.047,149.374 
							243.145,142.175 						"/>
					</g>
					<g>
						<polygon fill-rule="evenodd" clip-rule="evenodd" fill="#FFFFFF" points="246.521,142.26 246.202,149.454 245.413,149.434 
							245.676,142.239 						"/>
					</g>
				</g>
			</g>
			<g>
				<g>
					<path fill-rule="evenodd" clip-rule="evenodd" fill="none" d="M254.287,150.154c0,0-0.392-0.05-0.979-0.125
						c-0.589-0.072-1.371-0.191-2.161-0.233c-1.578-0.12-3.155-0.24-3.155-0.24l0.446-7.186c0,0,1.689,0.128,3.378,0.257
						c0.847,0.047,1.685,0.172,2.315,0.249c0.631,0.08,1.051,0.133,1.051,0.133L254.287,150.154z"/>
				</g>
				<g>
					<g>
						<path fill="none" d="M249.367,149.662c0,0,0.89,0.067,1.78,0.135c0.893,0.047,1.774,0.184,1.774,0.184l0.796-7.156
							c0,0-0.945-0.144-1.9-0.197c-0.953-0.073-1.906-0.146-1.906-0.146L249.367,149.662z"/>
					</g>
					<g>
						<polygon fill-rule="evenodd" clip-rule="evenodd" fill="#FFFFFF" points="251.594,142.61 250.939,149.781 249.367,149.662 
							249.91,142.482 						"/>
					</g>
					<g>
						<path fill-rule="evenodd" clip-rule="evenodd" fill="#FFFFFF" d="M253.275,142.769l-0.766,7.159c0,0-0.196-0.025-0.392-0.05
							c-0.195-0.03-0.393-0.038-0.393-0.038l0.71-7.165c0,0,0.212,0.009,0.421,0.04
							C253.066,142.742,253.275,142.769,253.275,142.769z"/>
					</g>
				</g>
			</g>
			<g>
				<g>
					<path fill-rule="evenodd" clip-rule="evenodd" fill="none" d="M260.535,151.13c0,0-1.557-0.278-3.113-0.557
						c-0.777-0.143-1.566-0.21-2.154-0.294c-0.588-0.075-0.98-0.125-0.98-0.125l0.895-7.145c0,0,0.42,0.054,1.051,0.134
						c0.629,0.09,1.474,0.166,2.307,0.317c1.669,0.298,3.337,0.595,3.337,0.595L260.535,151.13z"/>
				</g>
				<g>
					<g>
						<path fill="none" d="M255.655,150.328c0,0,0.222,0.028,0.554,0.07c0.331,0.045,0.775,0.086,1.213,0.176
							c0.879,0.157,1.757,0.314,1.757,0.314l1.244-7.092c0,0-0.941-0.167-1.883-0.335c-0.47-0.094-0.945-0.14-1.3-0.188
							c-0.356-0.045-0.594-0.076-0.594-0.076L255.655,150.328z"/>
					</g>
					<g>
						<path fill-rule="evenodd" clip-rule="evenodd" fill="#FFFFFF" d="M258.32,143.421l-1.103,7.115c0,0-0.389-0.065-0.78-0.11
							c-0.391-0.049-0.782-0.099-0.782-0.099l0.991-7.132c0,0,0.42,0.054,0.838,0.107
							C257.904,143.352,258.32,143.422,258.32,143.421z"/>
					</g>
					<g>
						<polygon fill-rule="evenodd" clip-rule="evenodd" fill="#FFFFFF" points="259.984,143.718 258.77,150.815 257.994,150.676 
							259.152,143.57 						"/>
					</g>
				</g>
			</g>
			<g>
				<g>
					<path fill-rule="evenodd" clip-rule="evenodd" fill="none" d="M266.711,152.48c0,0-1.541-0.355-3.081-0.71
						c-1.534-0.387-3.095-0.64-3.095-0.64l1.341-7.074c0,0,1.673,0.274,3.318,0.686c1.651,0.381,3.302,0.763,3.302,0.763
						L266.711,152.48z"/>
				</g>
				<g>
					<g>
						<polygon fill="none" points="261.892,151.372 265.369,152.171 267.059,145.172 263.33,144.316 						"/>
					</g>
					<g>
						<polygon fill-rule="evenodd" clip-rule="evenodd" fill="#FFFFFF" points="264.978,144.692 263.428,151.723 261.892,151.372 
							263.33,144.316 						"/>
					</g>
					<g>
						<polygon fill-rule="evenodd" clip-rule="evenodd" fill="#FFFFFF" points="266.625,145.072 264.965,152.078 264.196,151.901 
							265.801,144.882 						"/>
					</g>
				</g>
			</g>
			<g>
				<g>
					<path fill-rule="evenodd" clip-rule="evenodd" fill="none" d="M272.777,154.261c0,0-0.375-0.127-0.936-0.317
						c-0.563-0.186-1.33-0.384-2.088-0.605c-0.761-0.216-1.521-0.432-2.092-0.594c-0.569-0.163-0.951-0.265-0.951-0.265l1.785-6.975
						c0,0,0.41,0.108,1.021,0.283c0.611,0.173,1.426,0.405,2.242,0.636c0.813,0.237,1.633,0.451,2.236,0.65
						c0.603,0.203,1.004,0.339,1.004,0.339L272.777,154.261z"/>
				</g>
				<g>
					<g>
						<polygon fill="none" points="268.038,152.852 271.471,153.825 273.6,146.947 269.92,145.901 						"/>
					</g>
					<g>
						<polygon fill-rule="evenodd" clip-rule="evenodd" fill="#FFFFFF" points="271.545,146.363 269.555,153.282 268.038,152.852 
							269.92,145.901 						"/>
					</g>
					<g>
						<polygon fill-rule="evenodd" clip-rule="evenodd" fill="#FFFFFF" points="273.172,146.825 271.07,153.712 270.313,153.498 
							272.358,146.594 						"/>
					</g>
				</g>
			</g>
			<g>
				<g>
					<path fill-rule="evenodd" clip-rule="evenodd" fill="none" d="M278.722,156.409c0,0-0.367-0.145-0.919-0.362
						c-0.556-0.206-1.277-0.534-2.031-0.773c-1.497-0.506-2.994-1.013-2.994-1.013l2.223-6.848c0,0,1.605,0.543,3.211,1.087
						c0.808,0.258,1.582,0.606,2.178,0.828c0.592,0.233,0.985,0.388,0.985,0.388L278.722,156.409z"/>
				</g>
				<g>
					<g>
						<path fill="none" d="M274.082,154.703c0,0,0.846,0.286,1.689,0.571c0.426,0.134,0.84,0.301,1.15,0.425
							c0.312,0.123,0.519,0.205,0.519,0.205l2.56-6.73c0,0-0.223-0.087-0.556-0.219c-0.333-0.133-0.776-0.311-1.233-0.456
							c-0.905-0.307-1.811-0.614-1.811-0.614L274.082,154.703z"/>
					</g>
					<g>
						<polygon fill-rule="evenodd" clip-rule="evenodd" fill="#FFFFFF" points="278,148.428 275.575,155.208 274.082,154.703 
							276.4,147.886 						"/>
					</g>
					<g>
						<polygon fill-rule="evenodd" clip-rule="evenodd" fill="#FFFFFF" points="279.586,149.011 277.055,155.751 276.321,155.462 
							278.8,148.702 						"/>
					</g>
				</g>
			</g>
			<g>
				<g>
					<path fill-rule="evenodd" clip-rule="evenodd" fill="none" d="M284.527,158.911c0,0-1.439-0.651-2.881-1.303
						c-0.713-0.341-1.454-0.619-2.006-0.836c-0.551-0.217-0.919-0.362-0.919-0.362l2.652-6.694c0,0,0.395,0.156,0.985,0.389
						c0.592,0.234,1.385,0.534,2.15,0.897c1.544,0.698,3.088,1.396,3.088,1.396L284.527,158.911z"/>
				</g>
				<g>
					<g>
						<path fill="none" d="M280.004,156.915c0,0,0.838,0.309,1.644,0.694c0.813,0.368,1.625,0.735,1.625,0.735l2.979-6.555
							c0,0-0.871-0.394-1.742-0.788c-0.864-0.411-1.762-0.744-1.762-0.744L280.004,156.915z"/>
					</g>
					<g>
						<path fill-rule="evenodd" clip-rule="evenodd" fill="#FFFFFF" d="M284.307,150.91l-2.85,6.613c0,0-0.359-0.16-0.72-0.319
							c-0.366-0.145-0.733-0.289-0.733-0.289l2.744-6.657c0,0,0.394,0.155,0.786,0.311
							C283.92,150.739,284.307,150.91,284.307,150.91z"/>
					</g>
					<g>
						<polygon fill-rule="evenodd" clip-rule="evenodd" fill="#FFFFFF" points="285.848,151.605 282.895,158.173 282.176,157.848 
							285.077,151.258 						"/>
					</g>
				</g>
			</g>
			<g>
				<g>
					<path fill-rule="evenodd" clip-rule="evenodd" fill="none" d="M290.161,161.781c0,0-0.085-0.049-0.235-0.135
						c-0.148-0.089-0.364-0.209-0.631-0.34c-0.527-0.27-1.23-0.63-1.935-0.99c-0.704-0.361-1.407-0.722-1.935-0.992
						c-0.539-0.247-0.898-0.412-0.898-0.412l3.07-6.513c0,0,0.385,0.177,0.962,0.443c0.565,0.289,1.32,0.675,2.074,1.061
						c0.755,0.387,1.509,0.773,2.073,1.063c0.285,0.141,0.517,0.269,0.676,0.365c0.16,0.092,0.252,0.145,0.252,0.145
						L290.161,161.781z"/>
				</g>
				<g>
					<g>
						<polygon fill="none" points="285.773,159.501 288.949,161.128 292.336,154.774 288.932,153.031 						"/>
					</g>
					<g>
						<polygon fill-rule="evenodd" clip-rule="evenodd" fill="#FFFFFF" points="290.436,153.801 287.176,160.22 285.773,159.501 
							288.932,153.031 						"/>
					</g>
					<g>
						<polygon fill-rule="evenodd" clip-rule="evenodd" fill="#FFFFFF" points="291.94,154.571 288.579,160.939 287.877,160.58 
							291.188,154.186 						"/>
					</g>
				</g>
			</g>
			<g>
				<g>
					<path fill-rule="evenodd" clip-rule="evenodd" fill="none" d="M295.593,165.019c0,0-0.333-0.213-0.832-0.534
						c-0.493-0.329-1.165-0.746-1.858-1.128c-1.371-0.788-2.741-1.577-2.741-1.577l3.474-6.306c0,0,1.47,0.844,2.938,1.689
						c0.741,0.411,1.462,0.857,1.991,1.208c0.535,0.343,0.892,0.571,0.892,0.571L295.593,165.019z"/>
				</g>
				<g>
					<g>
						<path fill="none" d="M291.355,162.469c0,0,0.773,0.444,1.547,0.889c0.387,0.224,0.777,0.439,1.062,0.616
							c0.281,0.181,0.47,0.301,0.47,0.301l3.779-6.128c0,0-0.201-0.129-0.503-0.322c-0.31-0.18-0.724-0.421-1.136-0.661
							c-0.829-0.477-1.658-0.953-1.658-0.953L291.355,162.469z"/>
					</g>
					<g>
						<polygon fill-rule="evenodd" clip-rule="evenodd" fill="#FFFFFF" points="296.381,157.052 292.723,163.254 291.355,162.469 
							294.916,156.21 						"/>
					</g>
					<g>
						<path fill-rule="evenodd" clip-rule="evenodd" fill="#FFFFFF" d="M297.838,157.907l-3.754,6.144c0,0-0.162-0.112-0.336-0.208
							c-0.17-0.098-0.342-0.196-0.342-0.196l3.707-6.173c0,0,0.183,0.105,0.365,0.211
							C297.664,157.788,297.838,157.907,297.838,157.907z"/>
					</g>
				</g>
			</g>
			<g>
				<g>
					<path fill-rule="evenodd" clip-rule="evenodd" fill="none" d="M300.822,168.573c0,0-1.288-0.917-2.576-1.833
						c-1.313-0.882-2.653-1.721-2.653-1.721l3.863-6.076c0,0,1.437,0.899,2.842,1.845c1.381,0.981,2.762,1.963,2.762,1.963
						L300.822,168.573z"/>
				</g>
				<g>
					<g>
						<path fill="none" d="M296.754,165.763c0,0,0.761,0.466,1.492,0.978c0.727,0.517,1.453,1.035,1.453,1.035l4.158-5.879
							c0,0-0.779-0.553-1.559-1.107c-0.784-0.547-1.6-1.048-1.6-1.048L296.754,165.763z"/>
					</g>
					<g>
						<path fill-rule="evenodd" clip-rule="evenodd" fill="#FFFFFF" d="M302.117,160.659l-4.041,5.96c0,0-0.326-0.221-0.659-0.431
							c-0.331-0.212-0.663-0.425-0.663-0.425l3.945-6.022c0,0,0.355,0.229,0.711,0.457
							C301.768,160.422,302.117,160.66,302.117,160.659z"/>
					</g>
					<g>
						<polygon fill-rule="evenodd" clip-rule="evenodd" fill="#FFFFFF" points="303.494,161.638 299.361,167.534 298.719,167.077 
							302.806,161.148 						"/>
					</g>
				</g>
			</g>
			<g>
				<g>
					<path fill-rule="evenodd" clip-rule="evenodd" fill="none" d="M305.83,172.437c0,0-0.305-0.253-0.772-0.617
						c-0.466-0.366-1.089-0.855-1.71-1.343c-0.626-0.483-1.233-0.991-1.719-1.332c-0.484-0.343-0.807-0.572-0.807-0.572l4.237-5.822
						c0,0,0.345,0.246,0.862,0.614c0.52,0.366,1.172,0.908,1.842,1.425c0.666,0.524,1.332,1.047,1.832,1.44
						c0.501,0.391,0.826,0.662,0.826,0.661L305.83,172.437z"/>
				</g>
				<g>
					<g>
						<polygon fill="none" points="301.945,169.374 304.751,171.58 309.268,165.973 306.262,163.611 						"/>
					</g>
					<g>
						<polygon fill-rule="evenodd" clip-rule="evenodd" fill="#FFFFFF" points="307.59,164.653 303.184,170.349 301.945,169.374 
							306.262,163.611 						"/>
					</g>
					<g>
						<polygon fill-rule="evenodd" clip-rule="evenodd" fill="#FFFFFF" points="308.918,165.697 304.425,171.323 303.805,170.836 
							308.254,165.175 						"/>
					</g>
				</g>
			</g>
			<g>
				<g>
					<path fill-rule="evenodd" clip-rule="evenodd" fill="none" d="M310.558,176.639c0,0-1.12-1.119-2.337-2.13
						c-1.195-1.036-2.391-2.072-2.391-2.072l4.592-5.545c0,0,1.281,1.109,2.562,2.218c1.303,1.085,2.504,2.281,2.504,2.281
						L310.558,176.639z"/>
				</g>
				<g>
					<g>
						<path fill="none" d="M306.871,173.341c0,0,0.675,0.584,1.35,1.168c0.337,0.292,0.674,0.583,0.928,0.803
							c0.257,0.215,0.412,0.375,0.412,0.375l4.857-5.314c0,0-0.166-0.171-0.441-0.402c-0.271-0.235-0.632-0.548-0.992-0.861
							c-0.723-0.626-1.445-1.251-1.445-1.251L306.871,173.341z"/>
					</g>
					<g>
						<polygon fill-rule="evenodd" clip-rule="evenodd" fill="#FFFFFF" points="312.815,168.964 308.063,174.373 306.871,173.341 
							311.539,167.858 						"/>
					</g>
					<g>
						<polygon fill-rule="evenodd" clip-rule="evenodd" fill="#FFFFFF" points="314.092,170.071 309.256,175.405 308.66,174.889 
							313.454,169.517 						"/>
					</g>
				</g>
			</g>
			<g>
				<g>
					<path fill-rule="evenodd" clip-rule="evenodd" fill="none" d="M315.029,181.111c0,0-1.091-1.145-2.182-2.29
						c-1.146-1.091-2.29-2.182-2.29-2.182l4.93-5.248c0,0,1.226,1.169,2.451,2.339c1.169,1.226,2.339,2.451,2.339,2.451
						L315.029,181.111z"/>
				</g>
				<g>
					<g>
						<path fill="none" d="M311.555,177.59c0,0,0.646,0.615,1.293,1.231c0.615,0.646,1.23,1.292,1.23,1.292l5.181-5
							c0,0-0.659-0.691-1.319-1.383c-0.691-0.66-1.383-1.32-1.383-1.32L311.555,177.59z"/>
					</g>
					<g>
						<polygon fill-rule="evenodd" clip-rule="evenodd" fill="#FFFFFF" points="317.777,173.576 312.697,178.678 311.555,177.59 
							316.557,172.41 						"/>
					</g>
					<g>
						<polygon fill-rule="evenodd" clip-rule="evenodd" fill="#FFFFFF" points="318.951,174.791 313.792,179.813 313.248,179.242 
							318.369,174.18 						"/>
					</g>
				</g>
			</g>
			<g>
				<g>
					<path fill-rule="evenodd" clip-rule="evenodd" fill="none" d="M319.23,185.838c0,0-1.035-1.195-2.07-2.39
						c-1.012-1.218-2.131-2.337-2.131-2.337l5.248-4.93c0,0,1.196,1.202,2.281,2.504c1.109,1.281,2.218,2.561,2.218,2.561
						L319.23,185.838z"/>
				</g>
				<g>
					<g>
						<path fill="none" d="M315.981,182.108c0,0,0.161,0.155,0.376,0.412c0.219,0.253,0.511,0.59,0.803,0.928
							c0.584,0.675,1.168,1.349,1.168,1.349l5.482-4.667c0,0-0.626-0.723-1.252-1.445c-0.313-0.361-0.626-0.722-0.86-0.993
							c-0.231-0.274-0.402-0.441-0.402-0.441L315.981,182.108z"/>
					</g>
					<g>
						<path fill-rule="evenodd" clip-rule="evenodd" fill="#FFFFFF" d="M322.413,178.517l-5.39,4.774c0,0-0.258-0.298-0.516-0.596
							c-0.253-0.303-0.526-0.586-0.526-0.586l5.314-4.858c0,0,0.292,0.305,0.563,0.628
							C322.137,178.197,322.413,178.517,322.413,178.517z"/>
					</g>
					<g>
						<polygon fill-rule="evenodd" clip-rule="evenodd" fill="#FFFFFF" points="323.52,179.793 318.057,184.483 317.54,183.888 
							322.967,179.155 						"/>
					</g>
				</g>
			</g>
			<g>
				<g>
					<path fill-rule="evenodd" clip-rule="evenodd" fill="none" d="M323.096,190.845c0,0-0.229-0.322-0.572-0.806
						c-0.342-0.485-0.85-1.093-1.332-1.718c-0.488-0.622-0.977-1.244-1.344-1.71c-0.363-0.468-0.617-0.772-0.617-0.772l5.546-4.593
						c0,0,0.271,0.326,0.661,0.827c0.393,0.5,0.916,1.166,1.439,1.832c0.518,0.67,1.06,1.323,1.426,1.842
						c0.369,0.518,0.614,0.863,0.614,0.863L323.096,190.845z"/>
				</g>
				<g>
					<g>
						<polygon fill="none" points="320.089,186.917 322.295,189.724 328.059,185.408 325.696,182.401 						"/>
					</g>
					<g>
						<polygon fill-rule="evenodd" clip-rule="evenodd" fill="#FFFFFF" points="326.74,183.729 321.063,188.157 320.089,186.917 
							325.696,182.401 						"/>
					</g>
					<g>
						<polygon fill-rule="evenodd" clip-rule="evenodd" fill="#FFFFFF" points="327.783,185.058 322.038,189.397 321.551,188.777 
							327.262,184.393 						"/>
					</g>
				</g>
			</g>
			<g>
				<g>
					<path fill-rule="evenodd" clip-rule="evenodd" fill="none" d="M326.65,196.075c0,0-0.84-1.341-1.722-2.653
						c-0.917-1.289-1.833-2.577-1.833-2.577l5.821-4.237c0,0,0.981,1.381,1.964,2.762c0.945,1.405,1.845,2.841,1.845,2.841
						L326.65,196.075z"/>
				</g>
				<g>
					<g>
						<path fill="none" d="M323.895,191.969c0,0,0.518,0.727,1.035,1.454c0.51,0.731,0.977,1.492,0.977,1.493l6.022-3.947
							c0,0-0.501-0.814-1.048-1.599c-0.554-0.779-1.107-1.558-1.107-1.558L323.895,191.969z"/>
					</g>
					<g>
						<polygon fill-rule="evenodd" clip-rule="evenodd" fill="#FFFFFF" points="330.752,189.188 324.809,193.253 323.895,191.969 
							329.773,187.812 						"/>
					</g>
					<g>
						<polygon fill-rule="evenodd" clip-rule="evenodd" fill="#FFFFFF" points="331.688,190.595 325.682,194.566 325.258,193.901 
							331.232,189.883 						"/>
					</g>
				</g>
			</g>
			<g>
				<g>
					<path fill-rule="evenodd" clip-rule="evenodd" fill="none" d="M329.888,201.506c0,0-0.788-1.371-1.577-2.741
						c-0.381-0.692-0.799-1.364-1.127-1.858c-0.32-0.499-0.533-0.832-0.533-0.832l6.075-3.864c0,0,0.229,0.357,0.571,0.892
						c0.352,0.53,0.797,1.25,1.209,1.991c0.844,1.469,1.688,2.938,1.688,2.938L329.888,201.506z"/>
				</g>
				<g>
					<g>
						<path fill="none" d="M327.395,197.236c0,0,0.12,0.188,0.301,0.469c0.177,0.284,0.392,0.675,0.616,1.061
							c0.444,0.773,0.89,1.547,0.89,1.547l6.258-3.561c0,0-0.477-0.829-0.953-1.657c-0.24-0.413-0.48-0.826-0.662-1.136
							c-0.192-0.302-0.321-0.503-0.321-0.503L327.395,197.236z"/>
					</g>
					<g>
						<path fill-rule="evenodd" clip-rule="evenodd" fill="#FFFFFF" d="M334.395,194.901l-6.188,3.684c0,0-0.195-0.342-0.392-0.684
							c-0.21-0.333-0.421-0.666-0.421-0.666l6.128-3.78c0,0,0.226,0.357,0.45,0.714
							C334.184,194.536,334.395,194.901,334.395,194.901z"/>
					</g>
					<g>
						<polygon fill-rule="evenodd" clip-rule="evenodd" fill="#FFFFFF" points="335.237,196.367 328.994,199.953 328.601,199.269 
							334.816,195.634 						"/>
					</g>
				</g>
			</g>
			<g>
				<g>
					<path fill-rule="evenodd" clip-rule="evenodd" fill="none" d="M332.758,207.14c0,0-0.164-0.359-0.412-0.897
						c-0.271-0.528-0.631-1.231-0.992-1.935c-0.359-0.704-0.72-1.408-0.99-1.936c-0.131-0.266-0.25-0.482-0.34-0.63
						c-0.086-0.15-0.136-0.236-0.136-0.236l6.307-3.474c0,0,0.053,0.092,0.146,0.252c0.095,0.159,0.223,0.391,0.364,0.676
						c0.29,0.565,0.677,1.319,1.063,2.073c0.386,0.754,0.772,1.509,1.062,2.074c0.266,0.577,0.443,0.962,0.443,0.962L332.758,207.14
						z"/>
				</g>
				<g>
					<g>
						<polygon fill="none" points="330.541,202.72 332.168,205.896 338.639,202.736 336.895,199.333 						"/>
					</g>
					<g>
						<polygon fill-rule="evenodd" clip-rule="evenodd" fill="#FFFFFF" points="337.666,200.836 331.26,204.123 330.541,202.72 
							336.895,199.333 						"/>
					</g>
					<g>
						<polygon fill-rule="evenodd" clip-rule="evenodd" fill="#FFFFFF" points="338.436,202.34 331.979,205.526 331.619,204.825 
							338.051,201.588 						"/>
					</g>
				</g>
			</g>
			<g>
				<g>
					<path fill-rule="evenodd" clip-rule="evenodd" fill="none" d="M335.26,212.946c0,0-0.145-0.368-0.362-0.919
						c-0.218-0.551-0.495-1.292-0.837-2.005c-0.65-1.44-1.303-2.881-1.303-2.881l6.514-3.07c0,0,0.697,1.544,1.396,3.088
						c0.363,0.766,0.663,1.559,0.896,2.15s0.389,0.985,0.389,0.985L335.26,212.946z"/>
				</g>
				<g>
					<g>
						<path fill="none" d="M333.326,208.396c0,0,0.367,0.813,0.734,1.625c0.386,0.805,0.694,1.643,0.694,1.643l6.657-2.744
							c0,0-0.334-0.897-0.744-1.761c-0.395-0.872-0.787-1.743-0.787-1.743L333.326,208.396z"/>
					</g>
					<g>
						<polygon fill-rule="evenodd" clip-rule="evenodd" fill="#FFFFFF" points="340.576,206.956 333.975,209.832 333.326,208.396 
							339.881,205.416 						"/>
					</g>
					<g>
						<path fill-rule="evenodd" clip-rule="evenodd" fill="#FFFFFF" d="M341.248,208.506l-6.645,2.772c0,0-0.072-0.184-0.145-0.367
							s-0.158-0.361-0.158-0.361l6.623-2.825c0,0,0.092,0.191,0.169,0.387C341.17,208.31,341.248,208.506,341.248,208.506z"/>
					</g>
				</g>
			</g>
			<g>
				<g>
					<path fill-rule="evenodd" clip-rule="evenodd" fill="none" d="M337.408,218.891c0,0-0.506-1.497-1.014-2.995
						c-0.238-0.754-0.566-1.476-0.772-2.031c-0.218-0.551-0.362-0.919-0.362-0.919l6.693-2.652c0,0,0.156,0.394,0.389,0.985
						c0.222,0.596,0.569,1.37,0.828,2.178c0.543,1.605,1.086,3.211,1.086,3.211L337.408,218.891z"/>
				</g>
				<g>
					<g>
						<path fill="none" d="M335.766,214.228c0,0,0.082,0.208,0.205,0.519c0.124,0.311,0.291,0.724,0.425,1.15
							c0.285,0.845,0.571,1.69,0.571,1.69l6.816-2.318c0,0-0.307-0.906-0.613-1.812c-0.146-0.456-0.322-0.9-0.455-1.233
							c-0.132-0.333-0.22-0.556-0.22-0.556L335.766,214.228z"/>
					</g>
					<g>
						<path fill-rule="evenodd" clip-rule="evenodd" fill="#FFFFFF" d="M343.098,213.246l-6.77,2.453c0,0-0.121-0.375-0.273-0.738
							c-0.145-0.367-0.289-0.733-0.289-0.733l6.729-2.56c0,0,0.155,0.393,0.31,0.786
							C342.967,212.845,343.098,213.246,343.098,213.246z"/>
					</g>
					<g>
						<polygon fill-rule="evenodd" clip-rule="evenodd" fill="#FFFFFF" points="343.641,214.847 336.834,217.193 336.581,216.446 
							343.369,214.046 						"/>
					</g>
				</g>
			</g>
			<g>
				<g>
					<path fill-rule="evenodd" clip-rule="evenodd" fill="none" d="M339.189,224.957c0,0-0.102-0.382-0.266-0.952
						c-0.162-0.57-0.377-1.331-0.594-2.091c-0.221-0.759-0.418-1.525-0.604-2.087c-0.19-0.562-0.317-0.936-0.317-0.936l6.848-2.223
						c0,0,0.137,0.401,0.34,1.003c0.198,0.604,0.412,1.424,0.65,2.237c0.23,0.815,0.462,1.63,0.636,2.242
						c0.174,0.611,0.282,1.021,0.282,1.021L339.189,224.957z"/>
				</g>
				<g>
					<g>
						<polygon fill="none" points="337.844,220.198 338.818,223.631 345.768,221.749 344.723,218.069 						"/>
					</g>
					<g>
						<polygon fill-rule="evenodd" clip-rule="evenodd" fill="#FFFFFF" points="345.185,219.694 338.273,221.714 337.844,220.198 
							344.723,218.069 						"/>
					</g>
					<g>
						<polygon fill-rule="evenodd" clip-rule="evenodd" fill="#FFFFFF" points="345.646,221.32 338.705,223.231 338.488,222.473 
							345.416,220.507 						"/>
					</g>
				</g>
			</g>
			<g>
				<g>
					<path fill-rule="evenodd" clip-rule="evenodd" fill="none" d="M340.539,231.133c0,0-0.252-1.562-0.64-3.095
						c-0.355-1.541-0.71-3.081-0.71-3.081l6.975-1.786c0,0,0.382,1.651,0.764,3.303c0.412,1.645,0.686,3.318,0.686,3.317
						L340.539,231.133z"/>
				</g>
				<g>
					<g>
						<polygon fill="none" points="339.498,226.3 340.298,229.776 347.354,228.338 346.498,224.61 						"/>
					</g>
					<g>
						<polygon fill-rule="evenodd" clip-rule="evenodd" fill="#FFFFFF" points="346.877,226.257 339.853,227.835 339.498,226.3 
							346.498,224.61 						"/>
					</g>
					<g>
						<polygon fill-rule="evenodd" clip-rule="evenodd" fill="#FFFFFF" points="347.257,227.904 340.208,229.372 340.03,228.604 
							347.067,227.08 						"/>
					</g>
				</g>
			</g>
			<g>
				<g>
					<path fill-rule="evenodd" clip-rule="evenodd" fill="none" d="M341.515,237.38c0,0-0.05-0.393-0.124-0.98
						c-0.084-0.587-0.152-1.376-0.295-2.153c-0.278-1.557-0.557-3.113-0.557-3.113l7.074-1.342c0,0,0.298,1.669,0.596,3.337
						c0.151,0.834,0.227,1.679,0.316,2.308c0.08,0.63,0.134,1.051,0.134,1.051L341.515,237.38z"/>
				</g>
				<g>
					<g>
						<path fill="none" d="M340.781,232.49c0,0,0.157,0.878,0.314,1.756c0.09,0.438,0.131,0.883,0.176,1.214
							c0.042,0.332,0.07,0.553,0.07,0.553l7.131-0.991c0,0-0.029-0.237-0.075-0.593c-0.049-0.354-0.095-0.831-0.188-1.301
							c-0.168-0.94-0.336-1.882-0.336-1.882L340.781,232.49z"/>
					</g>
					<g>
						<polygon fill-rule="evenodd" clip-rule="evenodd" fill="#FFFFFF" points="348.17,232.909 341.059,234.041 340.781,232.49 
							347.873,231.246 						"/>
					</g>
					<g>
						<polygon fill-rule="evenodd" clip-rule="evenodd" fill="#FFFFFF" points="348.417,234.58 341.289,235.602 341.19,234.818 
							348.31,233.742 						"/>
					</g>
				</g>
			</g>
			<g>
				<g>
					<path fill-rule="evenodd" clip-rule="evenodd" fill="none" d="M342.112,243.676c0,0-0.12-1.577-0.239-3.154
						c-0.042-0.79-0.161-1.572-0.233-2.161c-0.075-0.588-0.125-0.98-0.125-0.98l7.145-0.894c0,0,0.054,0.42,0.134,1.05
						c0.076,0.631,0.201,1.47,0.249,2.315c0.128,1.689,0.257,3.379,0.257,3.379L342.112,243.676z"/>
				</g>
				<g>
					<g>
						<path fill="none" d="M341.689,238.747c0,0,0.137,0.883,0.184,1.775c0.067,0.89,0.135,1.779,0.135,1.779l7.18-0.543
							c0,0-0.072-0.953-0.146-1.906c-0.054-0.955-0.196-1.901-0.196-1.901L341.689,238.747z"/>
					</g>
					<g>
						<path fill-rule="evenodd" clip-rule="evenodd" fill="#FFFFFF" d="M349.025,239.63l-7.168,0.685c0,0-0.021-0.394-0.068-0.785
							c-0.05-0.391-0.1-0.782-0.1-0.782l7.156-0.796c0,0,0.053,0.419,0.105,0.838C349.002,239.208,349.025,239.63,349.025,239.63z"
							/>
					</g>
					<g>
						<polygon fill-rule="evenodd" clip-rule="evenodd" fill="#FFFFFF" points="349.154,241.315 341.977,241.888 341.916,241.101 
							349.09,240.473 						"/>
					</g>
				</g>
			</g>
			<g>
				<g>
					<path fill-rule="evenodd" clip-rule="evenodd" fill="none" d="M342.331,249.999c0,0-0.04-1.582-0.081-3.163
						c-0.023-0.791-0.031-1.582-0.063-2.175c-0.045-0.591-0.075-0.985-0.075-0.985l7.187-0.445c0,0,0.031,0.422,0.08,1.056
						c0.032,0.634,0.043,1.48,0.068,2.327c0.041,1.692,0.084,3.386,0.084,3.386H342.331z"/>
				</g>
				<g>
					<g>
						<polygon fill="none" points="342.205,245.052 342.295,248.621 349.494,248.524 349.397,244.703 						"/>
					</g>
					<g>
						<polygon fill-rule="evenodd" clip-rule="evenodd" fill="#FFFFFF" points="349.441,246.391 342.244,246.628 342.205,245.052 
							349.397,244.703 						"/>
					</g>
					<g>
						<polygon fill-rule="evenodd" clip-rule="evenodd" fill="#FFFFFF" points="349.484,248.079 342.285,248.206 342.265,247.417 
							349.463,247.235 						"/>
					</g>
				</g>
			</g>
		</g>
	</g>
</g>
</svg>
